<?xml version="1.0" encoding="utf-8"?><!DOCTYPE svg PUBLIC "-//W3C//DTD SVG 1.1//EN" "http://www.w3.org/Graphics/SVG/1.1/DTD/svg11.dtd"><svg version="1.1" id="Layer_1" xmlns="http://www.w3.org/2000/svg" xmlns:xlink="http://www.w3.org/1999/xlink" x="0px" y="0px" width="964.035px" height="219.721px" viewBox="149.617 25.171 964.035 219.721" enable-background="new 149.617 25.171 964.035 219.721" xml:space="preserve"><g><path fill="#86BB2D" d="M252.283,26.284c-15.594,4.545-23.431,25.318-12.902,38.286c10.449,15.9,38.097,11.714,43.054-6.811C289.402,40.143,270.174,20.212,252.283,26.284z"/><path fill="#DD214B" d="M235.592,142.068c3.468,12.711,18.306,20.67,30.809,16.383c12.572-3.448,20.668-18.251,16.191-30.638c-3.756-12.417-18.113-20.136-30.549-16.09C239.725,115.327,231.371,129.649,235.592,142.068z"/><path fill="#DD214B" d="M301.338,117.299c13.347,0.428,25.593-11.835,24.599-25.302c0.377-14.75-15.094-26.998-29.365-23.396c-11.804,2.521-21.168,14.683-19.111,26.879C278.42,107.436,289.4,117.299,301.338,117.299z"/><path fill="#DD214B" d="M337.738,111.621c-10.806,2.848-18.968,13.757-17.943,25.026c0.326,12.557,11.785,23.26,24.289,22.951c13.81,0.411,26.107-12.659,24.478-26.467C367.842,118.378,351.84,107.333,337.738,111.621z"/><path fill="#DD214B" d="M238.766,103.404c9.418-17.442-8.799-40.275-27.877-34.648c-16.02,3.328-23.86,24.031-14.68,37.343C205.575,121.861,231.422,120.145,238.766,103.404z"/><path fill="#DD214B" d="M198.472,133.132c-0.586-14.58-16.689-25.697-30.566-21.511c-11.631,2.692-19.879,14.974-18.03,26.776c1.32,13.14,14.922,23.157,27.873,20.961C190.187,157.85,199.964,145.62,198.472,133.132z"/><path fill="#DD214B" d="M294.805,154.229c-11.973,3.363-20.344,17.051-16.708,29.195c2.37,11.183,13.432,19.571,24.854,18.766c13.879-0.207,25.096-14.322,22.795-27.891C324.155,160.043,308.563,149.702,294.805,154.229z"/><path fill="#DD214B" d="M250.361,197.421c-18.666,6.056-21.287,34.355-3.978,43.69c17.135,11.904,42.611-6.348,36.742-26.348C280.259,200.612,263.674,191.966,250.361,197.421z"/><path fill="#DD214B" d="M240.618,172.823c-2.659-13.775-18.063-23.141-31.477-18.404c-10.444,3.207-17.702,14.254-16.705,25.11c0.567,12.506,12.125,23.432,24.768,22.694C231.819,202.31,244.032,187.079,240.618,172.823z"/></g><g><path fill="#DD214B" d="M546.021,98.54c-25.157,6.675-39.239,35.997-30.481,60.17c7.913,24.649,37.74,37.351,61.621,28.885c25.086-7.111,40.086-37.645,29.367-61.667C597.822,102.194,569.319,91.403,546.021,98.54z M579.94,171.121c-14.736,10.666-38.221,5.803-46.738-10.527c-10.527-17.515-1.838-43.086,17.707-49.667c9.895-2.277,21.337-1.864,29.662,4.645C598.328,128.275,597.892,158.758,579.94,171.121z"/><path fill="#DD214B" d="M482.662,104.703c-17.277-13.544-42.677-9.362-57.746,5.493c-0.75-13.762,1.016-27.628-0.944-41.295c-0.967-6.822-8.854-6.865-14.129-7.52c-1.377,20.146-0.292,40.35-0.653,60.526c0.169,16.375-1.815,34.278,7.547,48.748c14.252,22.641,49.888,26.104,68.875,7.642C506.252,159.38,504.849,121.882,482.662,104.703z M447.442,176.343c-29.782-6.364-31.239-55.911-3.054-65.441c19.669-6.557,40.45,10.26,39.897,30.483C486.85,161.391,467.738,181.183,447.442,176.343z"/><path fill="#DD214B" d="M1094.42,102.602c-9.145,20.854-15.581,42.847-24.312,63.845c-12.605-18.24-17.013-44.102-28.208-64.471c-3.413-6.819-12.05-3.971-18.124-4.551c10.551,27.799,23.081,54.847,34.866,82.129c5.926,9.994-1.675,21.339-8.205,28.939c-7.548,4.377-18.022,5.055-21.312,14.539c14.875,5.442,32.881-0.851,39.286-15.747c15.291-36.56,29.828-73.426,45.239-109.936C1107.244,98.029,1097.613,95.079,1094.42,102.602z"/><path fill="#DD214B" d="M918.565,117.458c-0.631-6.168-1.284-12.361-2.038-18.507c-4.547-0.674-9.098-1.306-13.618-1.885c-0.292,29.95-0.896,59.973,0.313,89.897c4.888,0,9.799,0,14.707,0c2.592-20.273-3.724-42.311,6.1-61.204c5.129-10.5,16.715-14.782,27.629-16.041c-0.143-4.791-0.289-9.558-0.481-14.346C936.274,94.835,925.876,105.846,918.565,117.458z"/><path fill="#DD214B" d="M651.723,131.08c-11.178-14.227-17.635-40.283-41.201-33.604c9.386,14.804,21.071,28.282,28.962,43.954c-6.849,17.13-19.812,31.401-29.031,47.468c24.069,6.603,29.926-20.786,41.271-35.153c12.071,13.863,17.056,41.758,41.298,35.225c-8.61-16.376-22.161-30.337-28.888-47.49c8.202-15.527,19.571-29.173,28.981-44.003C669.117,90.46,663.648,117.292,651.723,131.08z"/><path fill="#DD214B" d="M981.686,117.483c0.386-10.185-2.396-23.321-15.731-20.443c-0.262,29.996-0.604,60.021,0.196,90.02c4.863,0,9.751,0,14.664,0c2.343-20.321-4.019-42.456,6.071-61.276c5.177-10.235,16.373-15.221,27.503-14.662c0.053-5.273,0.03-10.523-0.094-15.797C999.319,94.815,988.916,105.748,981.686,117.483z"/><path fill="#DD214B" d="M772.729,102.365c-17.657-11.061-40.084-5.494-54.841,7.738c-0.431-13.765,1.21-27.652-0.654-41.319c-0.289-7.356-9.19-6.244-14.298-7.309c-1.085,21.75-0.171,43.523-0.505,65.3c-0.025,14.659-0.774,30.53,7.546,43.398c12.773,21.632,45.022,26.178,64.79,11.808C800.914,164.127,799.729,118.863,772.729,102.365z M742.079,176.585c-30.24-5.007-32.711-55.548-4.864-65.609c20.52-7.041,42.653,11.464,40.549,32.731C779.507,162.725,760.998,180.287,742.079,176.585z"/><path fill="#DD214B" d="M888.494,143.344c-0.024-13.474-1.839-28.282-11.971-38.152c-15.683-15.168-42.896-12.627-58.115,1.96c-19.208,19.209-18.335,55.038,3.629,71.874c18.751,15.12,46.378,12.144,64.718-2.129c-5.639-16.28-20.659-0.364-31.768-1.041c-18.261,1.502-33.744-13.86-34.183-31.837C843.35,143.15,865.948,144.336,888.494,143.344z M860.455,109.307c8.174,4.499,11.441,13.861,11.708,22.713c-16.619,0.485-33.263,0.124-49.885,0.124C822.083,113.104,844.005,101.468,860.455,109.307z"/></g></svg>