<svg version="1.1" id="Layer_1" xmlns="http://www.w3.org/2000/svg" xmlns:xlink="http://www.w3.org/1999/xlink" x="0px" y="0px" width="52px" height="40px" viewBox="0 0 52 40" enable-background="new 0 0 52 40" xml:space="preserve">
<path fill="#BFBFBF" d="M11.042,11.494c1.884-0.002,3.768,0,5.651,0c0.041,0.53,0.043,1.065-0.002,1.594
	c-1.882-0.001-3.765,0-5.646-0.001C10.975,12.562,10.977,12.02,11.042,11.494z"></path>
<path fill="#BFBFBF" d="M20.706,11.389c4.647-0.029,9.299-0.009,13.947-0.01c0.014,0.538,0.019,1.078-0.006,1.615
	c-4.647,0.011-9.296,0.017-13.943-0.001C20.692,12.457,20.692,11.923,20.706,11.389z"></path>
<path fill="#BFBFBF" d="M11.002,15.869c7.877-0.017,15.756-0.014,23.632-0.001c0.026,0.535,0.02,1.07,0.004,1.605
	c-7.88,0.004-15.763,0.017-23.641-0.007C10.981,16.934,10.977,16.401,11.002,15.869z"></path>
<path fill="#BFBFBF" d="M29.007,22.76c1.435-1.193,3.716-0.939,4.983,0.379c0.7-0.609,1.554-1.104,2.506-1.13
	c2.164-0.245,4.182,1.837,3.932,3.989c-0.128,1.711-1.577,3.213-3.297,3.353c-1.173,0.182-2.277-0.379-3.141-1.124
	c-1.286,1.328-3.551,1.559-5.005,0.374C27.108,27.259,27.11,24.085,29.007,22.76z"></path>
<path fill="#BFBFBF" d="M46.289,9.996c0.014-1.379-0.547-2.863-1.815-3.542c-1.181-0.66-2.566-0.467-3.857-0.492
	C30.273,5.98,19.932,5.921,9.593,6.005C7.818,6.018,6.107,7.374,5.971,9.193c-0.02,0.824-0.026,1.649-0.026,2.474H5.943
	c-0.002,6.316-0.006,12.631,0.001,18.948c-0.012,1.378,0.547,2.862,1.817,3.542c1.179,0.66,2.563,0.468,3.857,0.492
	c1.851-0.003,3.704-0.002,5.557-0.002c0,0.011,0,0.02,0,0.03c8.289,0.025,16.58,0.003,24.871,0.013
	c1.159-0.024,2.427-0.29,3.238-1.185c0.759-0.765,1.014-1.877,1.005-2.922C46.292,23.72,46.296,16.858,46.289,9.996z M42.18,32.399
	c-6.905,0.036-13.814,0.01-20.72,0.017c-3.807,0-7.612-0.004-11.418-0.014C9.003,32.49,8.211,31.56,8.3,30.55
	c-0.011-5.196-0.013-10.392-0.006-15.586c0.025-0.829,0.014-1.66,0.004-2.491c0-0.21,0-0.418,0-0.627H8.291
	c-0.009-0.781-0.004-1.562,0.045-2.342c0.114-0.904,1.065-1.366,1.899-1.305c10.651,0.002,21.303-0.016,31.956,0.009
	c1.039-0.085,1.831,0.845,1.742,1.854c0.013,6.869,0.021,13.741-0.003,20.609C43.996,31.653,43.152,32.467,42.18,32.399z"></path>
</svg>