<svg version="1.1" id="Layer_1" xmlns="http://www.w3.org/2000/svg" xmlns:xlink="http://www.w3.org/1999/xlink" x="0px" y="0px" width="52px" height="40px" viewBox="0 0 52 40" enable-background="new 0 0 52 40" xml:space="preserve">
<path fill="#BFBFBF" d="M13.309,19.785c2.021-2.045,4.063-4.077,6.114-6.096c1.915,0.652,3.677,1.692,5.597,2.318
	c1.547,0.363,3.682-0.24,4.098-1.956c0.354-1.103-0.387-2.25-1.396-2.688c-2.472-1.175-5.032-2.159-7.53-3.275
	c-1.225-0.538-2.873-0.669-3.918,0.3c-1.854,1.732-3.74,3.431-5.551,5.209c-0.9,0.891-2.234,1.696-2.195,3.127
	c-0.029,4.137-0.002,8.275-0.014,12.411c-0.16,1.381,1.184,2.417,2.459,2.446c2.797,0.104,5.596-0.022,8.395,0.058
	c-2.028-2.057-4.094-4.074-6.116-6.138C11.765,23.96,11.792,21.301,13.309,19.785z"></path>
<path fill="#BFBFBF" d="M2.071,17.045c-0.014,4.139-0.045,8.285,0.017,12.426c0.333,2.607,4.819,2.701,5.412,0.197
	c0.095-4.292,0.049-8.596,0.021-12.891C7.176,13.976,2.063,14.129,2.071,17.045z"></path>
<path fill="#BFBFBF" d="M37.018,3.039c-1.49-1.683-4.369-1.653-5.863,0.013c-1.94,2.028-4.088,3.882-5.889,6.034
	c0.864,0.365,1.735,0.708,2.613,1.027c1.843-1.715,3.535-3.59,5.381-5.3c0.507-0.528,1.379-0.392,1.837,0.127
	c4.031,4.021,8.054,8.057,12.077,12.082c0.691,0.531,0.751,1.556,0.079,2.127c-5.479,5.498-10.981,10.981-16.468,16.475
	c-0.5,0.626-1.475,0.792-2.043,0.153c-4.002-3.934-7.934-7.946-11.924-11.889c-0.582-0.518-1.151-1.396-0.506-2.102
	c1.782-1.98,3.793-3.751,5.603-5.711c-0.831-0.421-1.688-0.793-2.554-1.149c-1.709,1.595-3.373,3.246-4.972,4.949
	c-1.475,1.517-1.341,4.155,0.212,5.567c4.081,4.078,8.141,8.172,12.238,12.231c1.454,1.578,4.193,1.564,5.676,0.029
	c5.545-5.556,11.105-11.095,16.645-16.654c1.611-1.472,1.721-4.306,0.072-5.793C45.175,11.174,41.098,7.1,37.018,3.039z"></path>
<rect x="31.374" y="8.857" transform="matrix(0.707 0.7072 -0.7072 0.707 26.4574 -17.3303)" fill="#BFBFBF" width="5.542" height="28.818"></rect>
</svg>