<svg version="1.1" id="Layer_1" xmlns="http://www.w3.org/2000/svg" xmlns:xlink="http://www.w3.org/1999/xlink" x="0px" y="0px" width="52px" height="40px" viewBox="0 0 52 40" enable-background="new 0 0 52 40" xml:space="preserve">
<path fill="#BFBFBF" d="M2.107,17.045c-0.013,4.139-0.045,8.285,0.017,12.426c0.333,2.607,4.821,2.701,5.411,0.197
	c0.095-4.292,0.049-8.596,0.02-12.891C7.212,13.976,2.097,14.129,2.107,17.045z"></path>
<path fill="#BFBFBF" d="M13.344,19.785c2.022-2.045,4.064-4.077,6.116-6.096c1.915,0.652,3.676,1.692,5.597,2.318
	c1.546,0.363,3.679-0.24,4.096-1.956c0.353-1.103-0.387-2.25-1.395-2.688c-2.472-1.175-5.034-2.159-7.532-3.275
	c-1.223-0.538-2.873-0.669-3.917,0.3c-1.855,1.732-3.741,3.431-5.551,5.209c-0.901,0.891-2.234,1.696-2.195,3.127
	C8.532,20.861,8.559,25,8.549,29.136c-0.16,1.38,1.184,2.417,2.46,2.446c2.795,0.104,5.593-0.021,8.391,0.057
	c-2.028-2.056-4.093-4.074-6.115-6.137C11.801,23.96,11.827,21.301,13.344,19.785z"></path>
<path fill="#BFBFBF" d="M29.421,21.078c-0.94-1.089-1.931-2.172-3.119-3c-2.313,1.808-3.422,5.148-1.364,7.589
	c-0.332,0.444-0.684,0.876-1.05,1.293c0.427,0.474,0.878,0.927,1.347,1.364c0.42-0.355,0.841-0.709,1.265-1.061
	c3.223,2.898,8.213-0.078,8.787-3.887c0.176-2.24-1.041-4.321-0.992-6.543c0.379-0.832,1.15-1.774,2.182-1.503
	c0.706,1.214-0.984,1.781-1.131,2.763c0.9,1.073,1.989,1.967,2.955,2.984c2.225-1.435,2.76-4.563,0.975-6.572
	c0.29-0.359,0.581-0.714,0.875-1.07c-0.441-0.493-0.903-0.959-1.396-1.396c-0.356,0.3-0.714,0.594-1.08,0.88
	c-1.213-0.88-2.713-1.608-4.25-1.2c-2.6,0.802-4.283,3.78-3.621,6.428c0.173,1.683,1.36,3.716-0.025,5.174
	c-0.563,0.662-1.408,1.738-2.364,1.085C26.893,22.925,29.139,22.314,29.421,21.078z"></path>
<path fill="#BFBFBF" d="M37.053,3.039c-1.49-1.683-4.37-1.653-5.864,0.013c-1.941,2.028-4.088,3.882-5.888,6.034
	c0.865,0.365,1.735,0.708,2.613,1.027c1.842-1.715,3.536-3.59,5.382-5.3c0.505-0.528,1.379-0.392,1.836,0.127
	c4.031,4.021,8.053,8.057,12.078,12.082c0.691,0.531,0.75,1.556,0.078,2.127c-5.48,5.498-10.982,10.981-16.468,16.475
	c-0.5,0.626-1.475,0.792-2.043,0.153c-4.002-3.934-7.932-7.946-11.924-11.889c-0.581-0.518-1.152-1.396-0.506-2.102
	c1.784-1.98,3.793-3.751,5.604-5.711c-0.832-0.421-1.689-0.793-2.554-1.149c-1.708,1.595-3.372,3.246-4.97,4.949
	c-1.475,1.517-1.341,4.155,0.211,5.567c4.08,4.078,8.141,8.172,12.238,12.231c1.455,1.578,4.195,1.564,5.675,0.029
	c5.544-5.556,11.106-11.095,16.646-16.654c1.611-1.472,1.719-4.306,0.072-5.793C45.211,11.174,41.134,7.1,37.053,3.039z"></path>
</svg>