<?xml version="1.0" encoding="utf-8"?><!DOCTYPE svg PUBLIC "-//W3C//DTD SVG 1.1//EN" "http://www.w3.org/Graphics/SVG/1.1/DTD/svg11.dtd"><svg version="1.1" id="Layer_1" xmlns="http://www.w3.org/2000/svg" xmlns:xlink="http://www.w3.org/1999/xlink" x="0px" y="0px" width="293.655px" height="89.457px" viewBox="0 0 293.655 89.457" enable-background="new 0 0 293.655 89.457" xml:space="preserve"><path fill="#57A52C" d="M35.619,76.374c10.067-1.321,19.159-7.998,23.579-17.112c4.827-9.562,4.182-21.614-1.62-30.616c-6.637-10.77-20.1-16.368-32.454-13.878C15.611,16.564,7.22,23.152,3.073,31.887c-5.015,10.165-3.809,23.052,3.003,32.117C12.713,73.061,24.479,78.121,35.619,76.374z M6.624,26.934c16.234,5.556,33.612,1.88,50.253,3.894c-4.322,2.196-9.303,2.765-13.456,5.31c5.731,0.394,11.484-0.553,17.208,0.205c-3.227,1.957-6.966,2.709-10.46,4.012c-10.803,3.824-21.278,9.38-29.1,17.912c-3.319,3.39-5.781,7.471-8.847,11.07c0.737-4.483,2.189-8.848,2.463-13.401c-2.455,2.532-4.335,5.521-6.489,8.293c1.978-7.963,3.212-16.116,5.963-23.861C12.265,35.633,8.666,31.669,6.624,26.934z"/><path fill="#1F1A17" d="M197.982,17.722c-2.209,3.536-3.22,7.647-4.736,11.492c9.337,0.063,18.685,0.022,28.028,0.035c3.346-0.049,7.43-0.225,9.5-3.318c2.299-3.508,3.262-7.675,4.777-11.548c-9.674-0.049-19.348,0-29.024-0.035C203.427,14.327,199.778,14.866,197.982,17.722z"/><path fill="#1F1A17" d="M188.343,41.743c-2.384,3.579-3.388,7.844-4.959,11.793c9.61,0.007,19.224,0.036,28.829,0c3.232-0.035,7.064-0.512,8.973-3.479c2.119-3.39,3.113-7.326,4.525-11.03c-9.186-0.175-18.382-0.33-27.567-0.477C194.727,38.614,190.538,38.663,188.343,41.743z"/><path fill="#1F1A17" d="M244.384,14.355c-8.58,20.632-17.434,41.152-26.027,61.783c5.844,0,11.688,0,17.525-0.075c3.521-8.56,7.072-17.104,10.656-25.636c2.006,0.351,4.426,0.563,5.568,2.525c3.875,6.392,2.357,14.489,5.621,21.063c3.895,4.63,10.813,2.384,16.051,2.363c-1.529-8.819-2.244-17.905-5.373-26.345c-0.766-2.672-3.289-4.026-4.982-6.011c12.916-6.567,21.063-18.921,30.232-29.634c-7.178,0.519-15.119-1.664-21.623,2.272c-8.061,5.943-11.176,17.21-20.238,21.861c2.791-8.2,6.475-16.065,9.59-24.147C255.714,14.348,250.053,14.376,244.384,14.355z"/><path fill="#1F1A17" d="M174.985,17.223c-9.437-3.584-19.707-2.75-29.598-2.883c-5.992,13.982-11.935,27.993-17.778,42.038c4.173,0.169,8.397,1.009,12.55,0.225c3.445-0.702,5.788-3.677,7.176-6.721c3.473-7.521,6.73-15.133,9.907-22.788c3.016,0.821,6.896,1.01,8.756,3.923c1.648,4.215,0.209,8.881-1.25,12.951c-2.44,5.941-5.662,11.961-10.93,15.854c-7.493,4.126-16.283,2.436-24.421,2.54c-6.686,0.771-7.731,8.798-10.138,13.784c12.628,0.639,25.754,2.09,37.877-2.47c10.987-3.802,18.985-13.526,22.83-24.232c2.622-7.261,5.289-15.083,3.718-22.884C182.85,22.072,179.131,18.752,174.985,17.223z"/><path fill="#1F1A17" d="M99.869,20.585c-12.573,7.184-18.073,21.776-20.62,35.301c-1.031,6.237-0.687,14.299,5.36,17.953c6.124,3.284,13.47,3.157,20.226,2.752c6.047-0.633,9.822-6.168,11.295-11.598c-5.563-0.659-11.351-0.532-16.705-2.357c-3.486-1.347-3.472-5.695-2.827-8.77c1.613-7.395,5.009-14.495,10.011-20.198c3.676-4.329,9.787-4.344,14.937-5.304c3.718-0.716,8.453,0.345,11.133-2.988c2.161-3.256,3.017-7.171,4.427-10.785C124.521,13.829,111.241,14.642,99.869,20.585z"/><path fill="#1F1A17" d="M178.444,64.854c-2.154,3.508-3.206,7.556-4.624,11.393c9.508,0.07,19.015,0.034,28.513,0.027c3.332-0.014,7.319-0.463,9.268-3.551c2.09-3.401,3.051-7.337,4.561-11.007c-9.52-0.048-19.043-0.37-28.561-0.413C184.308,61.338,180.346,61.759,178.444,64.854z"/></svg>