<svg width="110" height="69" viewBox="0 0 110 69" fill="none" xmlns="http://www.w3.org/2000/svg">
<g clip-path="url(#clip0_475_1002)">
<path d="M110 62.4548C110.002 63.2002 109.857 63.9387 109.573 64.6281C109.29 65.3175 108.873 65.9443 108.348 66.4728C107.822 67.0012 107.197 67.4209 106.509 67.7079C105.821 67.9949 105.083 68.1436 104.338 68.1455H5.65734C4.15269 68.1404 2.71161 67.5382 1.65079 66.4711C0.589976 65.404 -0.00377271 63.9594 3.22325e-05 62.4548V5.6955C-0.00247976 4.95006 0.141859 4.21143 0.424806 3.52178C0.707754 2.83212 1.12377 2.20495 1.6491 1.67607C2.17443 1.1472 2.79879 0.726971 3.48652 0.43939C4.17426 0.151808 4.9119 0.00250356 5.65734 0L104.338 0C105.084 0.00187763 105.822 0.150721 106.51 0.438022C107.199 0.725323 107.823 1.14545 108.349 1.67439C108.875 2.20333 109.292 2.83071 109.575 3.52068C109.858 4.21064 110.003 4.94966 110 5.6955V62.4548Z" fill="#E5E5E5"/>
<path d="M10.0254 27.8188C10.0248 28.1553 10.0905 28.4885 10.2188 28.7996C10.3471 29.1106 10.5355 29.3932 10.7732 29.6313C11.0109 29.8695 11.2932 30.0584 11.604 30.1873C11.9147 30.3162 12.2479 30.3825 12.5843 30.3825H15.2769V27.5181H10.0254V27.8188Z" fill="#2F2F2F"/>
<path d="M15.277 23.6841H10.0063V26.6058H15.277V23.6841Z" fill="#2F2F2F"/>
<path d="M10.0254 18.619V18.9245H15.2769V16.0601H12.5652C11.8899 16.0651 11.2439 16.3369 10.7681 16.8163C10.2923 17.2956 10.0254 17.9436 10.0254 18.619Z" fill="#2F2F2F"/>
<path d="M23.3403 16.0742H16.1792V30.3965H19.8171V18.9387H25.8993V18.6188C25.8955 17.9426 25.6242 17.2954 25.1447 16.8186C24.6652 16.3418 24.0165 16.0742 23.3403 16.0742Z" fill="#2F2F2F"/>
<path d="M15.277 19.8506H10.0063V22.7723H15.277V19.8506Z" fill="#2F2F2F"/>
<path d="M25.8995 19.8506H20.7339V22.7723H25.8995V19.8506Z" fill="#2F2F2F"/>
<path d="M25.8995 23.6841H20.7339V26.6058H25.8995V23.6841Z" fill="#2F2F2F"/>
<path d="M20.7339 30.3825H23.3405C23.677 30.3825 24.0101 30.3162 24.3209 30.1873C24.6317 30.0584 24.914 29.8695 25.1517 29.6313C25.3893 29.3932 25.5777 29.1106 25.706 28.7996C25.8344 28.4885 25.9001 28.1553 25.8995 27.8188V27.5181H20.7339V30.3825Z" fill="#2F2F2F"/>
<path d="M11.0616 41.6159C10.9829 41.6063 10.9104 41.5682 10.8578 41.5088C10.8052 41.4495 10.7762 41.3729 10.7762 41.2936C10.7762 41.2143 10.8052 41.1378 10.8578 41.0784C10.9104 41.019 10.9829 40.981 11.0616 40.9714H13.2815C13.3667 40.9694 13.4514 40.9847 13.5305 41.0164C13.6095 41.0481 13.6814 41.0955 13.7416 41.1558C13.8019 41.216 13.8493 41.2878 13.881 41.3669C13.9126 41.446 13.928 41.5307 13.926 41.6159V42.8571C13.9364 42.9733 13.9189 43.0902 13.8749 43.1982C13.8309 43.3062 13.7616 43.402 13.673 43.4778C13.7608 43.5552 13.8294 43.6521 13.8733 43.7606C13.9172 43.8692 13.9353 43.9864 13.926 44.1032V45.354C13.928 45.4389 13.9127 45.5234 13.8809 45.6022C13.8492 45.6811 13.8017 45.7526 13.7414 45.8125C13.6811 45.8723 13.6092 45.9193 13.5301 45.9505C13.451 45.9816 13.3665 45.9963 13.2815 45.9937H11.0616C10.9767 45.9937 10.8954 45.96 10.8354 45.9C10.7754 45.84 10.7417 45.7587 10.7417 45.6739C10.7417 45.589 10.7754 45.5077 10.8354 45.4477C10.8954 45.3877 10.9767 45.354 11.0616 45.354H13.2815V44.2703C13.2815 43.9122 13.1383 43.7929 12.9569 43.7929H11.6965C11.6509 43.7984 11.6046 43.7942 11.5608 43.7806C11.5169 43.7669 11.4764 43.7441 11.442 43.7137C11.4076 43.6832 11.3801 43.6458 11.3612 43.6039C11.3423 43.562 11.3326 43.5166 11.3326 43.4706C11.3326 43.4247 11.3423 43.3792 11.3612 43.3373C11.3801 43.2954 11.4076 43.258 11.442 43.2276C11.4764 43.1971 11.5169 43.1743 11.5608 43.1606C11.6046 43.147 11.6509 43.1428 11.6965 43.1483H12.9569C13.1383 43.1483 13.2815 43.0385 13.2815 42.6709V41.6159H11.0616Z" fill="#2F2F2F"/>
<path d="M17.9221 45.3538V44.0409C17.9159 43.9973 17.9198 43.9528 17.9336 43.9109C17.9474 43.869 17.9707 43.8308 18.0017 43.7994C18.0326 43.768 18.0704 43.7441 18.1121 43.7297C18.1538 43.7153 18.1983 43.7107 18.242 43.7163C18.2859 43.7109 18.3305 43.7156 18.3724 43.73C18.4142 43.7444 18.4522 43.7681 18.4835 43.7994C18.5148 43.8307 18.5386 43.8687 18.553 43.9106C18.5674 43.9524 18.5721 43.997 18.5666 44.0409V45.6641C18.5704 45.7075 18.5645 45.7511 18.5494 45.792C18.5344 45.8328 18.5105 45.8698 18.4795 45.9003C18.4485 45.9309 18.4111 45.9542 18.3701 45.9687C18.329 45.9831 18.2853 45.9884 18.242 45.984H15.7022C15.6174 45.984 15.536 45.9503 15.476 45.8903C15.416 45.8303 15.3823 45.749 15.3823 45.6641C15.3823 45.5793 15.416 45.4979 15.476 45.438C15.536 45.378 15.6174 45.3443 15.7022 45.3443H16.657V41.6157H15.7022C15.6235 41.6061 15.551 41.568 15.4984 41.5087C15.4459 41.4493 15.4168 41.3727 15.4168 41.2934C15.4168 41.2142 15.4459 41.1376 15.4984 41.0782C15.551 41.0189 15.6235 40.9808 15.7022 40.9712H17.2967V45.3538H17.9221Z" fill="#2F2F2F"/>
<path d="M22.2377 43.707V41.8403C22.2473 41.7616 22.2854 41.6891 22.3447 41.6366C22.4041 41.584 22.4807 41.555 22.56 41.555C22.6393 41.555 22.7158 41.584 22.7752 41.6366C22.8345 41.6891 22.8726 41.7616 22.8822 41.8403V43.707C22.9255 43.7026 22.9692 43.7078 23.0103 43.7223C23.0513 43.7368 23.0887 43.7601 23.1197 43.7906C23.1507 43.8212 23.1746 43.8582 23.1896 43.899C23.2047 43.9398 23.2106 43.9835 23.2069 44.0269C23.2105 44.0704 23.2046 44.1142 23.1895 44.1552C23.1745 44.1963 23.1507 44.2335 23.1198 44.2644C23.0889 44.2953 23.0516 44.3191 23.0106 44.3342C22.9696 44.3492 22.9258 44.3551 22.8822 44.3515V45.6644C22.8886 45.7079 22.8848 45.7523 22.871 45.794C22.8572 45.8357 22.8338 45.8737 22.8027 45.9048C22.7717 45.9359 22.7337 45.9592 22.692 45.973C22.6502 45.9868 22.6058 45.9907 22.5623 45.9842C22.3284 45.9842 22.2377 45.8697 22.2377 45.6644V44.3515H20.3281V41.2961C20.3225 41.2505 20.3267 41.2042 20.3403 41.1603C20.354 41.1164 20.3768 41.076 20.4073 41.0416C20.4377 41.0072 20.4751 40.9796 20.517 40.9607C20.5589 40.9419 20.6044 40.9321 20.6503 40.9321C20.6963 40.9321 20.7417 40.9419 20.7836 40.9607C20.8255 40.9796 20.8629 41.0072 20.8934 41.0416C20.9238 41.076 20.9466 41.1164 20.9603 41.1603C20.974 41.2042 20.9781 41.2505 20.9726 41.2961V43.6831L22.2377 43.707Z" fill="#2F2F2F"/>
<path d="M27.2125 45.3538V44.0409C27.2062 43.9973 27.2101 43.9528 27.2239 43.9109C27.2377 43.869 27.261 43.8308 27.292 43.7994C27.3229 43.768 27.3607 43.7441 27.4024 43.7297C27.4441 43.7153 27.4886 43.7107 27.5323 43.7163C27.5762 43.7109 27.6208 43.7156 27.6627 43.73C27.7045 43.7444 27.7425 43.7681 27.7738 43.7994C27.8051 43.8307 27.8289 43.8687 27.8433 43.9106C27.8577 43.9524 27.8624 43.997 27.857 44.0409V45.6641C27.8607 45.7075 27.8548 45.7511 27.8397 45.792C27.8247 45.8328 27.8008 45.8698 27.7698 45.9003C27.7388 45.9309 27.7014 45.9542 27.6604 45.9687C27.6193 45.9831 27.5756 45.9884 27.5323 45.984H24.983C24.8981 45.984 24.8168 45.9503 24.7568 45.8903C24.6968 45.8303 24.6631 45.749 24.6631 45.6641C24.6631 45.5793 24.6968 45.4979 24.7568 45.438C24.8168 45.378 24.8981 45.3443 24.983 45.3443H25.9378V41.6157H24.983C24.9042 41.6061 24.8318 41.568 24.7792 41.5087C24.7266 41.4493 24.6976 41.3727 24.6976 41.2934C24.6976 41.2142 24.7266 41.1376 24.7792 41.0782C24.8318 41.0189 24.9042 40.9808 24.983 40.9712H26.5775V45.3538H27.2125Z" fill="#2F2F2F"/>
<path d="M35.2233 43.1577H36.4121C36.5059 43.1499 36.6004 43.162 36.6893 43.1933C36.7781 43.2245 36.8594 43.2742 36.9277 43.3391C37.0016 43.4076 37.0583 43.4926 37.0931 43.5872C37.128 43.6818 37.14 43.7832 37.1282 43.8833V45.263C37.1438 45.4458 37.0873 45.6275 36.9706 45.7691C36.9026 45.8484 36.816 45.9096 36.7185 45.9471C36.621 45.9846 36.5157 45.9972 36.4121 45.9839H34.9798C34.831 45.9808 34.6852 45.9415 34.5549 45.8694L34.3115 45.7643C34.1348 45.6832 33.9438 45.6259 33.9438 45.4015C33.9437 45.3186 33.9753 45.2388 34.0321 45.1784C34.0889 45.1181 34.1666 45.0817 34.2494 45.0769C34.3212 45.0767 34.3918 45.0948 34.4547 45.1294L34.6504 45.2153C34.757 45.2771 34.8732 45.3207 34.9942 45.3442H36.4789V43.8022H34.5693V40.9711H36.794C36.8396 40.9656 36.8859 40.9698 36.9297 40.9834C36.9736 40.9971 37.0141 41.0199 37.0485 41.0503C37.0829 41.0808 37.1104 41.1182 37.1293 41.1601C37.1482 41.202 37.1579 41.2474 37.1579 41.2934C37.1579 41.3393 37.1482 41.3848 37.1293 41.4267C37.1104 41.4686 37.0829 41.506 37.0485 41.5364C37.0141 41.5669 36.9736 41.5897 36.9297 41.6034C36.8859 41.617 36.8396 41.6212 36.794 41.6156H35.2233V43.1577Z" fill="#2F2F2F"/>
<path d="M41.119 43.2675H38.9038C38.8186 43.2663 38.7372 43.2315 38.6774 43.1708C38.6175 43.11 38.584 43.0282 38.584 42.9429V41.2958C38.5852 41.2109 38.6191 41.1298 38.6787 41.0693C38.7383 41.0088 38.819 40.9736 38.9038 40.9712H41.4437C41.5285 40.9736 41.6092 41.0088 41.6688 41.0693C41.7284 41.1298 41.7623 41.2109 41.7635 41.2958V45.6641C41.7649 45.7065 41.7575 45.7487 41.7419 45.7881C41.7263 45.8275 41.7028 45.8633 41.6728 45.8933C41.6428 45.9232 41.607 45.9467 41.5676 45.9623C41.5282 45.9779 41.486 45.9853 41.4437 45.984H41.119C41.0767 45.9853 41.0345 45.9779 40.9951 45.9623C40.9557 45.9467 40.9199 45.9232 40.8899 45.8933C40.8599 45.8633 40.8364 45.8275 40.8208 45.7881C40.8052 45.7487 40.7978 45.7065 40.7992 45.6641C40.7971 45.6216 40.804 45.5791 40.8193 45.5393C40.8347 45.4996 40.8582 45.4635 40.8883 45.4334C40.9184 45.4033 40.9545 45.3798 40.9942 45.3644C41.034 45.3491 41.0765 45.3422 41.119 45.3443V43.2675ZM41.119 42.623V41.6157H39.2094V42.623H41.119Z" fill="#2F2F2F"/>
<path d="M43.8645 45.354H46.0844C46.1692 45.354 46.2506 45.3877 46.3106 45.4477C46.3706 45.5077 46.4043 45.5891 46.4043 45.6739C46.4043 45.7587 46.3706 45.8401 46.3106 45.9001C46.2506 45.9601 46.1692 45.9938 46.0844 45.9938H43.22V43.8932C43.2064 43.7943 43.2159 43.6936 43.2479 43.599C43.2799 43.5044 43.3334 43.4186 43.4042 43.3482C43.475 43.2778 43.5612 43.2249 43.656 43.1935C43.7508 43.1622 43.8516 43.1533 43.9504 43.1675H45.7598V41.6159H43.5446C43.499 41.6215 43.4527 41.6173 43.4088 41.6037C43.365 41.59 43.3245 41.5672 43.2901 41.5367C43.2557 41.5063 43.2281 41.4688 43.2093 41.427C43.1904 41.3851 43.1807 41.3396 43.1807 41.2937C43.1807 41.2477 43.1904 41.2023 43.2093 41.1604C43.2281 41.1185 43.2557 41.0811 43.2901 41.0506C43.3245 41.0202 43.365 40.9974 43.4088 40.9837C43.4527 40.97 43.499 40.9659 43.5446 40.9714H45.6834C45.778 40.9629 45.8734 40.9747 45.9631 41.006C46.0529 41.0373 46.1349 41.0873 46.2038 41.1528C46.2794 41.2262 46.3369 41.3161 46.3717 41.4156C46.4065 41.515 46.4177 41.6212 46.4043 41.7257V43.0482C46.4175 43.1475 46.4083 43.2485 46.3773 43.3437C46.3462 43.439 46.2942 43.526 46.225 43.5984C46.1558 43.6709 46.0712 43.7268 45.9774 43.7621C45.8837 43.7974 45.7832 43.8112 45.6834 43.8025H43.8645V45.354Z" fill="#2F2F2F"/>
<path d="M48.5049 43.7067H50.658C50.9826 43.7067 51.0447 43.8404 51.0447 44.1364V45.5686C51.0447 45.8694 50.9158 45.9696 50.6246 45.9696H48.2805C47.9797 45.9696 47.8604 45.8646 47.8604 45.5686V41.2719C47.8604 41.1239 47.9129 40.9473 48.1373 40.9473H48.524C48.6067 40.9521 48.6844 40.9885 48.7413 41.0488C48.7981 41.1092 48.8296 41.189 48.8295 41.2719C48.8309 41.3147 48.8234 41.3573 48.8075 41.397C48.7916 41.4368 48.7676 41.4728 48.7371 41.5028C48.7066 41.5329 48.6703 41.5563 48.6303 41.5716C48.5903 41.5869 48.5476 41.5938 48.5049 41.5918V43.7067ZM48.5049 44.3512V45.3538H50.4145V44.3512H48.5049Z" fill="#2F2F2F"/>
<path d="M58.4252 43.1577H59.6092C59.7031 43.1493 59.7978 43.1611 59.8867 43.1924C59.9757 43.2237 60.0569 43.2738 60.1248 43.3391C60.1997 43.4069 60.2571 43.4918 60.292 43.5866C60.3269 43.6814 60.3383 43.7832 60.3253 43.8834V45.2631C60.3428 45.4453 60.2879 45.6271 60.1726 45.7692C60.1041 45.8492 60.0167 45.9108 59.9182 45.9483C59.8198 45.9858 59.7136 45.9981 59.6092 45.984H58.177C58.0267 45.9802 57.8795 45.9409 57.7473 45.8694L57.5038 45.7644C57.332 45.6832 57.1362 45.6259 57.1362 45.4016C57.1373 45.3182 57.1699 45.2384 57.2275 45.1782C57.2851 45.1179 57.3634 45.0817 57.4465 45.0769C57.518 45.0788 57.5882 45.0968 57.6518 45.1294L57.8476 45.2154C57.9529 45.2764 58.0673 45.3199 58.1865 45.3443H59.676V43.8022H57.7664V40.9712H59.9911C60.0699 40.9808 60.1423 41.0189 60.1949 41.0782C60.2475 41.1376 60.2765 41.2142 60.2765 41.2934C60.2765 41.3727 60.2475 41.4493 60.1949 41.5087C60.1423 41.568 60.0699 41.6061 59.9911 41.6157H58.4109L58.4252 43.1577Z" fill="#2F2F2F"/>
<path d="M62.1016 41.6159C62.0229 41.6063 61.9504 41.5682 61.8978 41.5088C61.8453 41.4495 61.8163 41.3729 61.8163 41.2936C61.8163 41.2143 61.8453 41.1378 61.8978 41.0784C61.9504 41.019 62.0229 40.981 62.1016 40.9714H64.3216C64.4067 40.9694 64.4914 40.9847 64.5705 41.0164C64.6496 41.0481 64.7214 41.0955 64.7817 41.1558C64.8419 41.216 64.8893 41.2878 64.921 41.3669C64.9527 41.446 64.968 41.5307 64.9661 41.6159V42.8571C64.9765 42.9733 64.959 43.0902 64.9149 43.1982C64.8709 43.3062 64.8017 43.402 64.713 43.4778C64.8009 43.5552 64.8695 43.6521 64.9134 43.7606C64.9573 43.8692 64.9753 43.9864 64.9661 44.1032V45.354C64.9681 45.4389 64.9527 45.5234 64.921 45.6022C64.8892 45.6811 64.8417 45.7526 64.7814 45.8125C64.7211 45.8723 64.6492 45.9193 64.5701 45.9505C64.4911 45.9816 64.4065 45.9963 64.3216 45.9937H62.1016C62.0168 45.9937 61.9354 45.96 61.8754 45.9C61.8154 45.84 61.7817 45.7587 61.7817 45.6739C61.7817 45.589 61.8154 45.5077 61.8754 45.4477C61.9354 45.3877 62.0168 45.354 62.1016 45.354H64.3216V44.2703C64.3216 43.9122 64.1783 43.7929 64.0017 43.7929H62.7366C62.6909 43.7984 62.6447 43.7942 62.6008 43.7806C62.5569 43.7669 62.5164 43.7441 62.482 43.7137C62.4476 43.6832 62.4201 43.6458 62.4012 43.6039C62.3824 43.562 62.3726 43.5166 62.3726 43.4706C62.3726 43.4247 62.3824 43.3792 62.4012 43.3373C62.4201 43.2954 62.4476 43.258 62.482 43.2276C62.5164 43.1971 62.5569 43.1743 62.6008 43.1606C62.6447 43.147 62.6909 43.1428 62.7366 43.1483H64.0017C64.1783 43.1483 64.3216 43.0385 64.3216 42.6709V41.6159H62.1016Z" fill="#2F2F2F"/>
<path d="M67.706 43.1577H68.89C68.9839 43.1496 69.0784 43.1615 69.1673 43.1928C69.2562 43.2241 69.3375 43.274 69.4056 43.3391C69.4805 43.4069 69.5378 43.4918 69.5727 43.5866C69.6077 43.6813 69.6191 43.7832 69.6061 43.8833V45.263C69.6236 45.4452 69.5687 45.627 69.4533 45.7691C69.3849 45.8491 69.2974 45.9107 69.199 45.9483C69.1006 45.9858 68.9944 45.9981 68.89 45.9839H67.4577C67.3075 45.9801 67.1603 45.9408 67.0281 45.8694L66.7846 45.7643C66.6127 45.6832 66.417 45.6259 66.417 45.4015C66.4181 45.3182 66.4507 45.2383 66.5083 45.1781C66.5658 45.1179 66.6441 45.0817 66.7273 45.0769C66.7988 45.0788 66.869 45.0967 66.9326 45.1294L67.1283 45.2153C67.2329 45.2778 67.3476 45.3214 67.4673 45.3442H68.9568V43.8022H67.0472V40.9711H69.2671C69.3127 40.9656 69.359 40.9698 69.4029 40.9834C69.4468 40.9971 69.4872 41.0199 69.5216 41.0503C69.556 41.0808 69.5836 41.1182 69.6025 41.1601C69.6213 41.202 69.6311 41.2474 69.6311 41.2934C69.6311 41.3393 69.6213 41.3848 69.6025 41.4267C69.5836 41.4686 69.556 41.506 69.5216 41.5364C69.4872 41.5669 69.4468 41.5897 69.4029 41.6034C69.359 41.617 69.3127 41.6212 69.2671 41.6156H67.6917L67.706 43.1577Z" fill="#2F2F2F"/>
<path d="M73.2776 40.9713C73.321 40.9685 73.3644 40.975 73.4051 40.9903C73.4458 41.0057 73.4827 41.0295 73.5134 41.0602C73.5441 41.0909 73.5679 41.1278 73.5833 41.1685C73.5986 41.2092 73.6051 41.2526 73.6023 41.296V43.1579C73.6899 43.1546 73.7774 43.1689 73.8594 43.2001C73.9414 43.2312 74.0163 43.2786 74.0797 43.3393C74.142 43.4013 74.19 43.4761 74.2205 43.5586C74.251 43.641 74.2632 43.7291 74.2563 43.8167V45.354C74.2628 45.4401 74.2506 45.5265 74.2204 45.6074C74.1903 45.6883 74.1429 45.7617 74.0816 45.8225C74.0204 45.8833 73.9466 45.9301 73.8655 45.9597C73.7844 45.9892 73.6978 46.0008 73.6118 45.9937H71.7022C71.6165 46.0001 71.5305 45.988 71.4499 45.9581C71.3694 45.9282 71.2963 45.8813 71.2355 45.8206C71.1748 45.7598 71.1279 45.6867 71.098 45.6062C71.0681 45.5257 71.056 45.4396 71.0624 45.354V43.8072C71.0555 43.7195 71.0677 43.6315 71.0982 43.549C71.1287 43.4666 71.1768 43.3918 71.2391 43.3297C71.3024 43.269 71.3773 43.2217 71.4593 43.1905C71.5414 43.1593 71.6288 43.145 71.7165 43.1483V41.296C71.7137 41.2526 71.7201 41.2092 71.7355 41.1685C71.7508 41.1278 71.7746 41.0909 71.8053 41.0602C71.8361 41.0295 71.873 41.0057 71.9136 40.9903C71.9543 40.975 71.9978 40.9685 72.0411 40.9713H73.2776ZM73.6023 45.3444V43.8024H71.6926V45.354L73.6023 45.3444ZM72.9578 43.1579V41.6158H72.3514V43.1579H72.9578Z" fill="#2F2F2F"/>
<path d="M82.883 43.2675H80.6822C80.5973 43.2651 80.5166 43.2299 80.457 43.1695C80.3974 43.109 80.3635 43.0278 80.3623 42.9429V41.2958C80.3635 41.2109 80.3974 41.1298 80.457 41.0693C80.5166 41.0088 80.5973 40.9736 80.6822 40.9712H83.222C83.3077 40.9724 83.3896 41.007 83.4502 41.0676C83.5108 41.1283 83.5454 41.2101 83.5466 41.2958V45.6641C83.548 45.7069 83.5405 45.7495 83.5246 45.7893C83.5087 45.829 83.4848 45.865 83.4543 45.8951C83.4238 45.9251 83.3874 45.9485 83.3474 45.9638C83.3075 45.9791 83.2648 45.986 83.222 45.984H82.9021C82.8173 45.984 82.7359 45.9503 82.676 45.8903C82.616 45.8303 82.5823 45.749 82.5823 45.6641C82.5823 45.5793 82.616 45.4979 82.676 45.4379C82.7359 45.378 82.8173 45.3443 82.9021 45.3443L82.883 43.2675ZM82.883 42.623V41.6157H80.9734V42.623H82.883Z" fill="#2F2F2F"/>
<path d="M85.6279 41.6157C85.6267 41.7014 85.5921 41.7833 85.5315 41.8439C85.4708 41.9045 85.389 41.9391 85.3033 41.9403C85.218 41.9391 85.1366 41.9043 85.0768 41.8436C85.0169 41.7828 84.9834 41.701 84.9834 41.6157V41.2958C84.9834 41.2106 85.0169 41.1287 85.0768 41.0679C85.1366 41.0072 85.218 40.9724 85.3033 40.9712H88.1677V42.8426C88.1677 43.067 88.1677 43.0909 87.9911 43.2484L87.0935 44.0266C86.9217 44.1746 86.9074 44.1889 86.9074 44.4133V45.6641C86.9074 45.8694 86.8214 45.984 86.5875 45.984C86.544 45.9904 86.4996 45.9866 86.4579 45.9728C86.4161 45.959 86.3782 45.9356 86.3471 45.9045C86.316 45.8734 86.2926 45.8355 86.2788 45.7938C86.265 45.752 86.2612 45.7076 86.2676 45.6641V44.1125C86.2676 43.8977 86.2676 43.8786 86.4299 43.7354L87.3227 42.9715C87.5375 42.7853 87.5232 42.7901 87.5232 42.4941V41.6157H85.6279Z" fill="#2F2F2F"/>
<path d="M92.1638 43.2675H89.9439C89.8586 43.2663 89.7773 43.2315 89.7174 43.1708C89.6576 43.11 89.624 43.0282 89.624 42.9429V41.2958C89.6252 41.2109 89.6592 41.1298 89.7188 41.0693C89.7784 41.0088 89.859 40.9736 89.9439 40.9712H92.4837C92.5694 40.9724 92.6513 41.007 92.7119 41.0676C92.7725 41.1283 92.8071 41.2101 92.8083 41.2958V45.6641C92.8097 45.7069 92.8022 45.7495 92.7863 45.7893C92.7704 45.829 92.7465 45.865 92.716 45.8951C92.6855 45.9251 92.6491 45.9485 92.6091 45.9638C92.5692 45.9791 92.5265 45.986 92.4837 45.984H92.1638C92.079 45.984 91.9976 45.9503 91.9377 45.8903C91.8777 45.8303 91.844 45.749 91.844 45.6641C91.844 45.5793 91.8777 45.4979 91.9377 45.4379C91.9976 45.378 92.079 45.3443 92.1638 45.3443V43.2675ZM92.1638 42.623V41.6157H90.2542V42.623H92.1638Z" fill="#2F2F2F"/>
<path d="M94.5845 41.6159C94.5058 41.6063 94.4333 41.5682 94.3808 41.5088C94.3282 41.4495 94.2992 41.3729 94.2992 41.2936C94.2992 41.2143 94.3282 41.1378 94.3808 41.0784C94.4333 41.019 94.5058 40.981 94.5845 40.9714H96.8045C96.8896 40.9694 96.9743 40.9847 97.0534 41.0164C97.1325 41.0481 97.2043 41.0955 97.2646 41.1558C97.3248 41.216 97.3722 41.2878 97.4039 41.3669C97.4356 41.446 97.4509 41.5307 97.449 41.6159V42.8571C97.4594 42.9733 97.4419 43.0902 97.3978 43.1982C97.3538 43.3062 97.2846 43.402 97.1959 43.4778C97.2838 43.5552 97.3523 43.6521 97.3963 43.7606C97.4402 43.8692 97.4582 43.9864 97.449 44.1032V45.354C97.451 45.4389 97.4356 45.5234 97.4039 45.6022C97.3721 45.6811 97.3246 45.7526 97.2643 45.8125C97.204 45.8723 97.1321 45.9193 97.0531 45.9505C96.974 45.9816 96.8894 45.9963 96.8045 45.9937H94.5845C94.4997 45.9937 94.4183 45.96 94.3583 45.9C94.2984 45.84 94.2646 45.7587 94.2646 45.6739C94.2646 45.589 94.2984 45.5077 94.3583 45.4477C94.4183 45.3877 94.4997 45.354 94.5845 45.354H96.8045V44.2703C96.8045 43.9122 96.6612 43.7929 96.4798 43.7929H95.2195C95.1739 43.7984 95.1276 43.7942 95.0837 43.7806C95.0398 43.7669 94.9994 43.7441 94.965 43.7137C94.9306 43.6832 94.903 43.6458 94.8842 43.6039C94.8653 43.562 94.8555 43.5166 94.8555 43.4706C94.8555 43.4247 94.8653 43.3792 94.8842 43.3373C94.903 43.2954 94.9306 43.258 94.965 43.2276C94.9994 43.1971 95.0398 43.1743 95.0837 43.1606C95.1276 43.147 95.1739 43.1428 95.2195 43.1483H96.4798C96.6612 43.1483 96.8045 43.0385 96.8045 42.6709V41.6159H94.5845Z" fill="#2F2F2F"/>
<path d="M13.6953 53.8516V54.502C13.6953 54.8516 13.6641 55.1465 13.6016 55.3867C13.5391 55.627 13.4492 55.8203 13.332 55.9668C13.2148 56.1133 13.0732 56.2197 12.9072 56.2861C12.7432 56.3506 12.5576 56.3828 12.3506 56.3828C12.1865 56.3828 12.0352 56.3623 11.8965 56.3213C11.7578 56.2803 11.6328 56.2148 11.5215 56.125C11.4121 56.0332 11.3184 55.9141 11.2402 55.7676C11.1621 55.6211 11.1025 55.4434 11.0615 55.2344C11.0205 55.0254 11 54.7812 11 54.502V53.8516C11 53.502 11.0312 53.209 11.0938 52.9727C11.1582 52.7363 11.249 52.5469 11.3662 52.4043C11.4834 52.2598 11.624 52.1562 11.7881 52.0938C11.9541 52.0312 12.1396 52 12.3447 52C12.5107 52 12.6631 52.0205 12.8018 52.0615C12.9424 52.1006 13.0674 52.1641 13.1768 52.252C13.2861 52.3379 13.3789 52.4531 13.4551 52.5977C13.5332 52.7402 13.5928 52.915 13.6338 53.1221C13.6748 53.3291 13.6953 53.5723 13.6953 53.8516ZM13.1504 54.5898V53.7607C13.1504 53.5693 13.1387 53.4014 13.1152 53.2568C13.0938 53.1104 13.0615 52.9854 13.0186 52.8818C12.9756 52.7783 12.9209 52.6943 12.8545 52.6299C12.79 52.5654 12.7148 52.5186 12.6289 52.4893C12.5449 52.458 12.4502 52.4424 12.3447 52.4424C12.2158 52.4424 12.1016 52.4668 12.002 52.5156C11.9023 52.5625 11.8184 52.6377 11.75 52.7412C11.6836 52.8447 11.6328 52.9805 11.5977 53.1484C11.5625 53.3164 11.5449 53.5205 11.5449 53.7607V54.5898C11.5449 54.7812 11.5557 54.9502 11.5771 55.0967C11.6006 55.2432 11.6348 55.3701 11.6797 55.4775C11.7246 55.583 11.7793 55.6699 11.8438 55.7383C11.9082 55.8066 11.9824 55.8574 12.0664 55.8906C12.1523 55.9219 12.2471 55.9375 12.3506 55.9375C12.4834 55.9375 12.5996 55.9121 12.6992 55.8613C12.7988 55.8105 12.8818 55.7314 12.9482 55.624C13.0166 55.5146 13.0674 55.375 13.1006 55.2051C13.1338 55.0332 13.1504 54.8281 13.1504 54.5898Z" fill="#2F2F2F"/>
<path d="M17.0703 53.8516V54.502C17.0703 54.8516 17.0391 55.1465 16.9766 55.3867C16.9141 55.627 16.8242 55.8203 16.707 55.9668C16.5898 56.1133 16.4482 56.2197 16.2822 56.2861C16.1182 56.3506 15.9326 56.3828 15.7256 56.3828C15.5615 56.3828 15.4102 56.3623 15.2715 56.3213C15.1328 56.2803 15.0078 56.2148 14.8965 56.125C14.7871 56.0332 14.6934 55.9141 14.6152 55.7676C14.5371 55.6211 14.4775 55.4434 14.4365 55.2344C14.3955 55.0254 14.375 54.7812 14.375 54.502V53.8516C14.375 53.502 14.4062 53.209 14.4688 52.9727C14.5332 52.7363 14.624 52.5469 14.7412 52.4043C14.8584 52.2598 14.999 52.1562 15.1631 52.0938C15.3291 52.0312 15.5146 52 15.7197 52C15.8857 52 16.0381 52.0205 16.1768 52.0615C16.3174 52.1006 16.4424 52.1641 16.5518 52.252C16.6611 52.3379 16.7539 52.4531 16.8301 52.5977C16.9082 52.7402 16.9678 52.915 17.0088 53.1221C17.0498 53.3291 17.0703 53.5723 17.0703 53.8516ZM16.5254 54.5898V53.7607C16.5254 53.5693 16.5137 53.4014 16.4902 53.2568C16.4688 53.1104 16.4365 52.9854 16.3936 52.8818C16.3506 52.7783 16.2959 52.6943 16.2295 52.6299C16.165 52.5654 16.0898 52.5186 16.0039 52.4893C15.9199 52.458 15.8252 52.4424 15.7197 52.4424C15.5908 52.4424 15.4766 52.4668 15.377 52.5156C15.2773 52.5625 15.1934 52.6377 15.125 52.7412C15.0586 52.8447 15.0078 52.9805 14.9727 53.1484C14.9375 53.3164 14.9199 53.5205 14.9199 53.7607V54.5898C14.9199 54.7812 14.9307 54.9502 14.9521 55.0967C14.9756 55.2432 15.0098 55.3701 15.0547 55.4775C15.0996 55.583 15.1543 55.6699 15.2188 55.7383C15.2832 55.8066 15.3574 55.8574 15.4414 55.8906C15.5273 55.9219 15.6221 55.9375 15.7256 55.9375C15.8584 55.9375 15.9746 55.9121 16.0742 55.8613C16.1738 55.8105 16.2568 55.7314 16.3232 55.624C16.3916 55.5146 16.4424 55.375 16.4756 55.2051C16.5088 55.0332 16.5254 54.8281 16.5254 54.5898Z" fill="#2F2F2F"/>
<path d="M19.7129 52.0586L17.9346 56.6904H17.4688L19.25 52.0586H19.7129Z" fill="#2F2F2F"/>
<path d="M22.9238 53.8516V54.502C22.9238 54.8516 22.8926 55.1465 22.8301 55.3867C22.7676 55.627 22.6777 55.8203 22.5605 55.9668C22.4434 56.1133 22.3018 56.2197 22.1357 56.2861C21.9717 56.3506 21.7861 56.3828 21.5791 56.3828C21.415 56.3828 21.2637 56.3623 21.125 56.3213C20.9863 56.2803 20.8613 56.2148 20.75 56.125C20.6406 56.0332 20.5469 55.9141 20.4688 55.7676C20.3906 55.6211 20.3311 55.4434 20.29 55.2344C20.249 55.0254 20.2285 54.7812 20.2285 54.502V53.8516C20.2285 53.502 20.2598 53.209 20.3223 52.9727C20.3867 52.7363 20.4775 52.5469 20.5947 52.4043C20.7119 52.2598 20.8525 52.1562 21.0166 52.0938C21.1826 52.0312 21.3682 52 21.5732 52C21.7393 52 21.8916 52.0205 22.0303 52.0615C22.1709 52.1006 22.2959 52.1641 22.4053 52.252C22.5146 52.3379 22.6074 52.4531 22.6836 52.5977C22.7617 52.7402 22.8213 52.915 22.8623 53.1221C22.9033 53.3291 22.9238 53.5723 22.9238 53.8516ZM22.3789 54.5898V53.7607C22.3789 53.5693 22.3672 53.4014 22.3438 53.2568C22.3223 53.1104 22.29 52.9854 22.2471 52.8818C22.2041 52.7783 22.1494 52.6943 22.083 52.6299C22.0186 52.5654 21.9434 52.5186 21.8574 52.4893C21.7734 52.458 21.6787 52.4424 21.5732 52.4424C21.4443 52.4424 21.3301 52.4668 21.2305 52.5156C21.1309 52.5625 21.0469 52.6377 20.9785 52.7412C20.9121 52.8447 20.8613 52.9805 20.8262 53.1484C20.791 53.3164 20.7734 53.5205 20.7734 53.7607V54.5898C20.7734 54.7812 20.7842 54.9502 20.8057 55.0967C20.8291 55.2432 20.8633 55.3701 20.9082 55.4775C20.9531 55.583 21.0078 55.6699 21.0723 55.7383C21.1367 55.8066 21.2109 55.8574 21.2949 55.8906C21.3809 55.9219 21.4756 55.9375 21.5791 55.9375C21.7119 55.9375 21.8281 55.9121 21.9277 55.8613C22.0273 55.8105 22.1104 55.7314 22.1768 55.624C22.2451 55.5146 22.2959 55.375 22.3291 55.2051C22.3623 55.0332 22.3789 54.8281 22.3789 54.5898Z" fill="#2F2F2F"/>
<path d="M26.2988 53.8516V54.502C26.2988 54.8516 26.2676 55.1465 26.2051 55.3867C26.1426 55.627 26.0527 55.8203 25.9355 55.9668C25.8184 56.1133 25.6768 56.2197 25.5107 56.2861C25.3467 56.3506 25.1611 56.3828 24.9541 56.3828C24.79 56.3828 24.6387 56.3623 24.5 56.3213C24.3613 56.2803 24.2363 56.2148 24.125 56.125C24.0156 56.0332 23.9219 55.9141 23.8438 55.7676C23.7656 55.6211 23.7061 55.4434 23.665 55.2344C23.624 55.0254 23.6035 54.7812 23.6035 54.502V53.8516C23.6035 53.502 23.6348 53.209 23.6973 52.9727C23.7617 52.7363 23.8525 52.5469 23.9697 52.4043C24.0869 52.2598 24.2275 52.1562 24.3916 52.0938C24.5576 52.0312 24.7432 52 24.9482 52C25.1143 52 25.2666 52.0205 25.4053 52.0615C25.5459 52.1006 25.6709 52.1641 25.7803 52.252C25.8896 52.3379 25.9824 52.4531 26.0586 52.5977C26.1367 52.7402 26.1963 52.915 26.2373 53.1221C26.2783 53.3291 26.2988 53.5723 26.2988 53.8516ZM25.7539 54.5898V53.7607C25.7539 53.5693 25.7422 53.4014 25.7188 53.2568C25.6973 53.1104 25.665 52.9854 25.6221 52.8818C25.5791 52.7783 25.5244 52.6943 25.458 52.6299C25.3936 52.5654 25.3184 52.5186 25.2324 52.4893C25.1484 52.458 25.0537 52.4424 24.9482 52.4424C24.8193 52.4424 24.7051 52.4668 24.6055 52.5156C24.5059 52.5625 24.4219 52.6377 24.3535 52.7412C24.2871 52.8447 24.2363 52.9805 24.2012 53.1484C24.166 53.3164 24.1484 53.5205 24.1484 53.7607V54.5898C24.1484 54.7812 24.1592 54.9502 24.1807 55.0967C24.2041 55.2432 24.2383 55.3701 24.2832 55.4775C24.3281 55.583 24.3828 55.6699 24.4473 55.7383C24.5117 55.8066 24.5859 55.8574 24.6699 55.8906C24.7559 55.9219 24.8506 55.9375 24.9541 55.9375C25.0869 55.9375 25.2031 55.9121 25.3027 55.8613C25.4023 55.8105 25.4854 55.7314 25.5518 55.624C25.6201 55.5146 25.6709 55.375 25.7041 55.2051C25.7373 55.0332 25.7539 54.8281 25.7539 54.5898Z" fill="#2F2F2F"/>
</g>
<defs>
<clipPath id="clip0_475_1002">
<rect width="110" height="68.1455" fill="white"/>
</clipPath>
</defs>
</svg>
