<?xml version="1.0" encoding="utf-8"?><!DOCTYPE svg PUBLIC "-//W3C//DTD SVG 1.1//EN" "http://www.w3.org/Graphics/SVG/1.1/DTD/svg11.dtd"><svg version="1.1" id="Layer_1" xmlns="http://www.w3.org/2000/svg" xmlns:xlink="http://www.w3.org/1999/xlink" x="0px" y="0px" width="765.196px" height="334.78px" viewBox="4.789 97.847 765.196 334.78" enable-background="new 4.789 97.847 765.196 334.78" xml:space="preserve"><g><g id="_x23_e11642ff"><path fill="#E21742" d="M11.147,353.389c43.658,25.795,87.387,51.494,131.078,77.277c4.037,2.672,9.284,2.588,13.297-0.097c43.359-25.605,86.744-51.167,130.115-76.743c4.453-2.29,7.385-6.85,6.823-11.948c-0.085-48.522,0.147-97.044-0.124-145.554c-30.179,16.959-59.645,35.193-89.963,51.879c-4.781-3.096-13.014-4.74-12.808-11.834c-0.042-4.193-1.303-9.975,3.439-12.084c29.48-17.138,58.905-34.372,88.442-51.414c1.079-0.56,3.958-2.464,1.78-3.479c-42.592-23.289-85.264-46.453-127.883-69.702c-4.029-2.424-8.987-2.478-13.03-0.04c-42.314,23.016-84.576,46.14-126.915,69.102c-2.263,0.48-2.045,3.055,0.01,3.658c47.128,27.302,94.129,54.837,141.28,82.112c3.001,1.465,5.508,4.082,4.985,7.7c-0.054,40.684,0.178,81.413-0.136,122.101c-3.057,11.204-20.713,11.589-25.371,1.3c-0.589-37.713-0.054-75.483-0.273-113.224C92.41,246.835,48.901,221.273,5.052,196.354c-0.468,47.564,0,95.155-0.222,142.718C4.527,344.524,5.83,350.702,11.147,353.389z"/></g><g id="_x23_383838ff"><path fill="#383938" d="M404.684,235.931c-25.275,19.93-29.114,59.631-13.031,86.402c10.754,17.288,31.264,25.687,50.893,27.136c19.785,1.168,39.701-0.738,58.99-5.137c0.166-57.947,0.066-115.894,0.055-173.842c-10.907-0.015-21.793-0.055-32.688,0.027c-0.094,18.548-0.051,37.111-0.013,55.674C447.601,219.739,422.599,222.041,404.684,235.931z M468.907,255.52c-0.14,21.658,0.024,43.328-0.084,64.988c-12.41,1.646-25.976,2.548-37.265-3.863c-18.08-10.286-20.836-37.412-9.176-53.453C433.34,249.507,453.82,249.548,468.907,255.52z"/><path fill="#383938" d="M673.119,235.864c-25.371,19.919-29.219,59.714-13.101,86.523c10.799,17.206,31.207,25.618,50.814,27.07c19.793,1.192,39.752-0.727,59.057-5.165c0.164-57.918,0.071-115.841,0.056-173.762c-10.934-0.068-21.865-0.136-32.783,0.07c0.055,18.507,0,37.014,0.029,55.524C715.93,219.821,691.023,222.013,673.119,235.864z M737.162,255.329c0.111,21.674-0.096,43.33,0.084,65.003c-12.355,2.001-25.961,2.687-37.248-3.658c-18.207-10.247-20.92-37.536-9.193-53.578C701.805,249.478,722.037,249.739,737.162,255.329z"/><path fill="#383938" d="M570.663,321.414c-0.057,9.494-0.041,18.986,0,28.479c18.604,0.261,38.592-4.206,52.084-17.85c19.823-20.822,22.547-55.304,9.303-80.291c-9.562-16.919-28.593-26.303-47.399-28.303c-21.797-2.18-43.934,1.617-64.4,9.164c-0.52,54.525-0.273,109.074-0.124,163.598c10.959,0.068,21.916,0,32.891,0.014c0.123-47.016-0.025-94.032,0.07-141.062c13.849-4,30.497-4.945,42.521,4.288c13.209,10.646,13.688,30.974,6.619,45.263C596.294,316.277,582.896,320.867,570.663,321.414z"/></g></g></svg>