<svg width="124" height="67" viewBox="0 0 124 67" fill="none" xmlns="http://www.w3.org/2000/svg">
<path d="M103.766 38.8471H96.5248C96.7728 38.0178 96.8236 37.1419 96.673 36.2895C96.5225 35.437 96.1749 34.6315 95.6578 33.9372C95.1408 33.243 94.4687 32.6791 93.6951 32.2907C92.9215 31.9022 92.0678 31.7 91.2021 31.7C90.3365 31.7 89.4828 31.9022 88.7092 32.2907C87.9356 32.6791 87.2635 33.243 86.7464 33.9372C86.2294 34.6315 85.8818 35.437 85.7312 36.2895C85.5807 37.1419 85.6315 38.0178 85.8795 38.8471H80.0022V30.6104C80.002 30.3406 79.9218 30.077 79.7718 29.8529C79.6218 29.6287 79.4086 29.4541 79.1593 29.3511C78.91 29.2481 78.6358 29.2213 78.3713 29.2742C78.1068 29.3271 77.8639 29.4573 77.6734 29.6482C77.2787 30.046 76.7748 30.3177 76.2256 30.4287C75.6763 30.5397 75.1064 30.485 74.5883 30.2716C74.0701 30.0582 73.627 29.6957 73.3153 29.2301C73.0035 28.7645 72.837 28.2168 72.837 27.6564C72.837 27.096 73.0035 26.5483 73.3153 26.0827C73.627 25.6171 74.0701 25.2546 74.5883 25.0412C75.1064 24.8278 75.6763 24.7731 76.2256 24.8841C76.7748 24.9951 77.2787 25.2668 77.6734 25.6646C77.8646 25.8543 78.1077 25.9831 78.372 26.0351C78.6363 26.087 78.91 26.0597 79.1588 25.9566C79.4077 25.8535 79.6205 25.6791 79.7705 25.4554C79.9206 25.2318 80.0012 24.9687 80.0022 24.6994V15.0867C80.0022 14.9077 79.9669 14.7304 79.8984 14.5649C79.8299 14.3995 79.7295 14.2492 79.6028 14.1225C79.4762 13.9959 79.3259 13.8955 79.1604 13.8269C78.995 13.7584 78.8177 13.7231 78.6386 13.7231H56.7444C55.5253 13.7231 54.3562 14.2074 53.4942 15.0694C52.6322 15.9314 52.1479 17.1005 52.1479 18.3196V62.1081C52.1479 63.3271 52.6322 64.4962 53.4942 65.3582C54.3562 66.2202 55.5253 66.7045 56.7444 66.7045H100.533C101.752 66.7045 102.921 66.2202 103.783 65.3582C104.645 64.4962 105.129 63.3271 105.129 62.1081V40.2107C105.129 39.8491 104.986 39.5023 104.73 39.2465C104.474 38.9908 104.127 38.8471 103.766 38.8471ZM56.7444 16.4503H77.275V22.3276C76.5112 22.0992 75.7072 22.0379 74.9176 22.1478C74.128 22.2577 73.3713 22.5362 72.6989 22.9645C72.0265 23.3927 71.4542 23.9607 71.0207 24.6297C70.5873 25.2988 70.3029 26.0534 70.1869 26.8421C70.071 27.6308 70.1261 28.4352 70.3486 29.2008C70.5711 29.9663 70.9557 30.675 71.4764 31.2787C71.9971 31.8824 72.6415 32.3669 73.3661 32.6995C74.0906 33.032 74.8783 33.2047 75.6755 33.2058C76.2184 33.207 76.7585 33.1274 77.2781 32.9699V38.8471H69.0382C68.7683 38.8476 68.5045 38.928 68.2801 39.0782C68.0558 39.2284 67.881 39.4417 67.7777 39.6911C67.6745 39.9406 67.6474 40.215 67.7 40.4798C67.7525 40.7446 67.8823 40.9879 68.073 41.1791C68.337 41.4404 68.5463 41.7516 68.6889 42.0946C68.8315 42.4376 68.9044 42.8055 68.9034 43.177C68.9041 43.6424 68.7899 44.1008 68.5709 44.5115C68.352 44.9222 68.0351 45.2725 67.6483 45.5314C67.2616 45.7903 66.8169 45.9497 66.3538 45.9956C65.8906 46.0414 65.4233 45.9723 64.9933 45.7943C64.5633 45.6162 64.1838 45.3349 63.8886 44.9751C63.5934 44.6153 63.3915 44.1882 63.3009 43.7317C63.2103 43.2752 63.2337 42.8034 63.3691 42.3581C63.5045 41.9128 63.7477 41.5078 64.0772 41.1791C64.2681 40.9885 64.3983 40.7457 64.4511 40.4812C64.504 40.2167 64.4773 39.9424 64.3743 39.6931C64.2713 39.4438 64.0967 39.2307 63.8725 39.0806C63.6483 38.9306 63.3847 38.8504 63.115 38.8502H54.8752V18.3196C54.876 17.8241 55.0732 17.3491 55.4235 16.9987C55.7739 16.6484 56.2489 16.4512 56.7444 16.4503ZM54.8752 62.1081V41.5774H60.7555C60.5066 42.407 60.455 43.2832 60.605 44.1362C60.755 44.9893 61.1024 45.7954 61.6193 46.4903C62.1363 47.1852 62.8086 47.7496 63.5825 48.1384C64.3564 48.5272 65.2105 48.7297 66.0766 48.7297C66.9427 48.7297 67.7968 48.5272 68.5707 48.1384C69.3446 47.7496 70.0169 47.1852 70.5339 46.4903C71.0509 45.7954 71.3982 44.9893 71.5482 44.1362C71.6982 43.2832 71.6467 42.407 71.3977 41.5774H77.275V49.8234C77.2752 50.0931 77.3554 50.3567 77.5054 50.5809C77.6555 50.805 77.8686 50.9797 78.1179 51.0827C78.3672 51.1857 78.6415 51.2124 78.906 51.1595C79.1705 51.1066 79.4133 50.9765 79.6039 50.7856C79.9985 50.3877 80.5024 50.1161 81.0517 50.0051C81.6009 49.8941 82.1708 49.9487 82.689 50.1621C83.2071 50.3755 83.6502 50.738 83.962 51.2036C84.2738 51.6692 84.4402 52.217 84.4402 52.7773C84.4402 53.3377 84.2738 53.8854 83.962 54.3511C83.6502 54.8167 83.2071 55.1792 82.689 55.3926C82.1708 55.606 81.6009 55.6606 81.0517 55.5496C80.5024 55.4386 79.9985 55.167 79.6039 54.7691C79.4133 54.5782 79.1705 54.448 78.906 54.3952C78.6415 54.3423 78.3672 54.369 78.1179 54.472C77.8686 54.575 77.6555 54.7496 77.5054 54.9738C77.3554 55.1979 77.2752 55.4616 77.275 55.7313V63.9681H56.7444C56.2502 63.9681 55.7762 63.7724 55.4259 63.4238C55.0756 63.0753 54.8776 62.6022 54.8752 62.1081ZM100.533 63.9742H80.0022V58.0969C80.8309 58.3439 81.7059 58.394 82.5574 58.243C83.4089 58.0921 84.2133 57.7444 84.9067 57.2276C85.6 56.7108 86.163 56.0392 86.5509 55.2663C86.9388 54.4934 87.1408 53.6406 87.1408 52.7758C87.1408 51.911 86.9388 51.0582 86.5509 50.2854C86.163 49.5125 85.6 48.8408 84.9067 48.324C84.2133 47.8072 83.4089 47.4595 82.5574 47.3086C81.7059 47.1576 80.8309 47.2077 80.0022 47.4547V41.5774H88.2421C88.5118 41.5772 88.7754 41.497 88.9996 41.347C89.2237 41.1969 89.3983 40.9838 89.5013 40.7345C89.6043 40.4852 89.6311 40.211 89.5782 39.9465C89.5253 39.682 89.3952 39.4391 89.2042 39.2486C88.8054 38.8538 88.5328 38.3493 88.4212 37.7993C88.3096 37.2493 88.3639 36.6785 88.5774 36.1594C88.7908 35.6403 89.1537 35.1964 89.6199 34.884C90.0862 34.5716 90.6348 34.4048 91.196 34.4048C91.7573 34.4048 92.3058 34.5716 92.7721 34.884C93.2383 35.1964 93.6012 35.6403 93.8147 36.1594C94.0281 36.6785 94.0825 37.2493 93.9709 37.7993C93.8592 38.3493 93.5867 38.8538 93.1878 39.2486C92.9982 39.4398 92.8693 39.6829 92.8173 39.9472C92.7654 40.2115 92.7927 40.4852 92.8958 40.734C92.999 40.9829 93.1733 41.1957 93.397 41.3457C93.6207 41.4958 93.8837 41.5764 94.153 41.5774H102.39V62.1081C102.389 62.6012 102.193 63.074 101.846 63.4235C101.498 63.773 101.026 63.971 100.533 63.9742Z" fill="black"/>
<path d="M123.965 16.8363C123.894 16.2363 123.705 15.6564 123.407 15.1303C123.11 14.6042 122.711 14.1425 122.234 13.7721L104.982 0.28926C104.841 0.178891 104.679 0.0974387 104.507 0.0495608C104.334 0.00168289 104.154 -0.0116817 103.976 0.0102322C103.798 0.032146 103.626 0.088908 103.47 0.177272C103.314 0.265636 103.177 0.383869 103.067 0.525209L98.6207 6.23089C98.3064 5.78874 97.9296 5.39446 97.5022 5.06034C96.8733 4.57054 96.1463 4.22184 95.3706 4.03791C94.5949 3.85399 93.7888 3.83915 93.0069 3.9944C92.225 4.14965 91.4856 4.47136 90.8391 4.93767C90.1925 5.40399 89.6539 6.00398 89.2598 6.69692C88.8656 7.38985 88.6253 8.15948 88.5549 8.95355C88.4846 9.74762 88.586 10.5475 88.8523 11.2989C89.1185 12.0503 89.5433 12.7356 90.0979 13.3083C90.6524 13.881 91.3237 14.3276 92.0662 14.6178L87.5893 20.3235C87.479 20.4644 87.3976 20.6258 87.3498 20.7982C87.302 20.9707 87.2886 21.1509 87.3105 21.3285C87.3325 21.5061 87.3892 21.6777 87.4775 21.8333C87.5658 21.989 87.684 22.1257 87.8253 22.2356L95.3818 28.1435C95.5932 28.3106 95.8493 28.4113 96.1179 28.4329C96.3865 28.4545 96.6555 28.396 96.8909 28.2649C97.1263 28.1338 97.3175 27.9358 97.4405 27.6961C97.5635 27.4563 97.6127 27.1855 97.5819 26.9178C97.5115 26.3624 97.6074 25.7985 97.8577 25.2977C98.108 24.7968 98.5013 24.3815 98.9878 24.1044C99.4742 23.8273 100.032 23.7008 100.59 23.7409C101.149 23.781 101.683 23.986 102.125 24.3299C102.567 24.6737 102.896 25.141 103.073 25.6725C103.249 26.2039 103.263 26.7757 103.114 27.3154C102.965 27.855 102.659 28.3383 102.235 28.7039C101.811 29.0695 101.288 29.3011 100.732 29.3692C100.464 29.4022 100.213 29.5136 100.009 29.6896C99.8044 29.8655 99.6569 30.098 99.5848 30.3577C99.5127 30.6173 99.5191 30.8926 99.6033 31.1486C99.6875 31.4046 99.8457 31.63 100.058 31.7961L107.624 37.7102C107.909 37.9321 108.27 38.0319 108.628 37.9877C108.987 37.9435 109.313 37.7588 109.536 37.4742L123.018 20.2254C123.393 19.7513 123.669 19.2076 123.832 18.6258C123.994 18.0441 124.04 17.4358 123.965 16.8363ZM120.877 18.5462L108.233 34.7195L103.603 31.1006C104.044 30.7862 104.438 30.4094 104.771 29.9821C105.258 29.3533 105.605 28.627 105.788 27.8525C105.97 27.078 105.984 26.2733 105.828 25.4929C105.672 24.7126 105.351 23.9748 104.885 23.3296C104.419 22.6844 103.82 22.1468 103.129 21.7533C102.437 21.3598 101.669 21.1196 100.877 21.0489C100.084 20.9781 99.2854 21.0786 98.5351 21.3434C97.7847 21.6083 97.1 22.0313 96.5274 22.5839C95.9548 23.1364 95.5077 23.8056 95.2163 24.5461L90.5831 20.9272L95.6575 14.437L95.7188 14.3543C95.8628 14.1368 95.9415 13.8826 95.9457 13.6218C95.9499 13.361 95.8793 13.1045 95.7424 12.8825C95.6054 12.6605 95.4078 12.4823 95.1729 12.369C94.938 12.2557 94.6755 12.212 94.4165 12.243C93.8611 12.3134 93.2972 12.2175 92.7964 11.9672C92.2955 11.7169 91.8802 11.3236 91.6031 10.8371C91.326 10.3507 91.1994 9.79286 91.2396 9.23441C91.2797 8.67596 91.4847 8.14198 91.8285 7.70013C92.1724 7.25827 92.6397 6.92841 93.1711 6.75233C93.7026 6.57625 94.2744 6.56188 94.8141 6.71103C95.3537 6.86018 95.837 7.16615 96.2026 7.59017C96.5682 8.0142 96.7998 8.5372 96.8679 9.09293C96.9003 9.36115 97.0116 9.61373 97.1877 9.8186C97.3638 10.0235 97.5968 10.1714 97.8572 10.2436C98.1175 10.3159 98.3935 10.3091 98.65 10.2243C98.9065 10.1394 99.132 9.98029 99.2979 9.76707L104.375 3.27693L120.555 15.9232C120.747 16.0752 120.908 16.2637 121.027 16.4778C121.147 16.692 121.223 16.9276 121.252 17.1712C121.28 17.4148 121.26 17.6616 121.193 17.8976C121.126 18.1335 121.013 18.3539 120.861 18.5462H120.877Z" fill="black"/>
<path d="M9.50845 66.3398V34.9401L2.88042 37.2414L0 30.6164L10.6606 26.02H19.8688V66.3398H9.50845Z" fill="black"/>
<path d="M25.0781 57.6985H35.4354V66.3397H25.0781V57.6985Z" fill="black"/>
</svg>
