<svg width="102" height="62" viewBox="0 0 102 62" fill="none" xmlns="http://www.w3.org/2000/svg">
<path d="M35.4844 52.3848H46.1309V61.2573H35.4844V52.3848Z" fill="white"/>
<path d="M31.9363 32.8723C31.9363 36.2271 30.5168 39.1239 27.6777 41.5624C26.8096 42.3131 25.8661 43.0627 24.847 43.8112L12.131 52.9763H31.9457V61.2576H0V50.0199L21.2898 34.6461V31.6865C21.2898 29.3213 20.1072 28.1387 17.742 28.1387H1.18574V19.8606H20.1104C24.2494 19.8606 27.2552 20.7968 29.1276 22.6693C31.0001 24.5417 31.9363 27.5475 31.9363 31.6865V32.8723Z" fill="white"/>
<path d="M85.7736 57.2688H78.6578C78.3309 57.2688 78.0174 57.1389 77.7863 56.9078C77.5552 56.6766 77.4253 56.3631 77.4253 56.0363C77.4253 55.7094 77.5552 55.3959 77.7863 55.1647C78.0174 54.9336 78.3309 54.8037 78.6578 54.8037H85.7736C86.1005 54.8037 86.414 54.9336 86.6451 55.1647C86.8763 55.3959 87.0061 55.7094 87.0061 56.0363C87.0061 56.3631 86.8763 56.6766 86.6451 56.9078C86.414 57.1389 86.1005 57.2688 85.7736 57.2688Z" fill="white"/>
<path d="M86.4244 30.4478H83.6519V33.2203H86.4244V30.4478Z" fill="white"/>
<path d="M91.9723 30.4478H89.1997V33.2203H91.9723V30.4478Z" fill="white"/>
<path d="M86.4244 35.9929H83.6519V38.7655H86.4244V35.9929Z" fill="white"/>
<path d="M91.9723 35.9929H89.1997V38.7655H91.9723V35.9929Z" fill="white"/>
<path d="M89.1969 33.2202H86.4243V35.9928H89.1969V33.2202Z" fill="white"/>
<path d="M78.5692 23.5149H76.7217V25.3624H78.5692V23.5149Z" fill="white"/>
<path d="M81.7939 28.6001H73.4863V20.2798H81.7939V28.6001ZM75.3237 26.75H79.9464V22.1299H75.3339L75.3237 26.75Z" fill="white"/>
<path d="M78.5692 33.6829H76.7217V35.5304H78.5692V33.6829Z" fill="white"/>
<path d="M81.7939 38.7655H73.4863V30.4478H81.7939V38.7655ZM75.3237 36.918H79.9464V32.2953H75.3339L75.3237 36.918Z" fill="white"/>
<path d="M88.7343 23.5149H86.8867V25.3624H88.7343V23.5149Z" fill="white"/>
<path d="M91.9722 28.6001H83.6519V20.2798H91.9722V28.6001ZM85.502 26.75H90.1221V22.1299H85.502V26.75Z" fill="white"/>
<path d="M95.9214 61.33H69.5347C68.1316 61.3279 66.7866 60.7695 65.7947 59.7771C64.8028 58.7847 64.245 57.4395 64.2437 56.0364V5.2936C64.245 3.8905 64.8028 2.54522 65.7947 1.55284C66.7866 0.560466 68.1316 0.0020182 69.5347 0H95.9214C97.3249 0.00134567 98.6706 0.559493 99.663 1.55194C100.655 2.54439 101.214 3.89006 101.215 5.2936V56.0364C101.214 57.4399 100.655 58.7856 99.663 59.778C98.6706 60.7705 97.3249 61.3286 95.9214 61.33V61.33ZM69.5347 2.46509C68.785 2.46644 68.0663 2.76487 67.5361 3.29503C67.006 3.82519 66.7075 4.54385 66.7062 5.2936V56.0364C66.7075 56.7861 67.006 57.5048 67.5361 58.0349C68.0663 58.5651 68.785 58.8635 69.5347 58.8649H95.9214C96.6713 58.8642 97.3904 58.566 97.9207 58.0357C98.451 57.5054 98.7492 56.7863 98.7498 56.0364V5.2936C98.7492 4.54364 98.451 3.82459 97.9207 3.29428C97.3904 2.76398 96.6713 2.46577 95.9214 2.46509H69.5347Z" fill="white"/>
<path d="M100.201 50.7454H64.2437V53.2105H100.201V50.7454Z" fill="white"/>
<path d="M85.7738 6.51338H78.6581C78.4917 6.52094 78.3255 6.4947 78.1695 6.43623C78.0136 6.37776 77.8711 6.28829 77.7506 6.17321C77.6302 6.05813 77.5344 5.91984 77.4689 5.76668C77.4034 5.61352 77.3696 5.44868 77.3696 5.28211C77.3696 5.11554 77.4034 4.95069 77.4689 4.79753C77.5344 4.64438 77.6302 4.50608 77.7506 4.391C77.8711 4.27593 78.0136 4.18645 78.1695 4.12798C78.3255 4.06952 78.4917 4.04327 78.6581 4.05083H85.7738C85.9402 4.04327 86.1065 4.06952 86.2624 4.12798C86.4184 4.18645 86.5609 4.27593 86.6813 4.391C86.8018 4.50608 86.8976 4.64438 86.9631 4.79753C87.0286 4.95069 87.0624 5.11554 87.0624 5.28211C87.0624 5.44868 87.0286 5.61352 86.9631 5.76668C86.8976 5.91984 86.8018 6.05813 86.6813 6.17321C86.5609 6.28829 86.4184 6.37776 86.2624 6.43623C86.1065 6.4947 85.9402 6.52094 85.7738 6.51338V6.51338Z" fill="white"/>
</svg>
