<svg width="176" height="42" viewBox="0 0 176 42" fill="none" xmlns="http://www.w3.org/2000/svg">
<path d="M21.2252 40.7238C14.8375 40.7238 7.76243 40.3415 0 39.5768V31.8347C8.45387 32.4082 14.7643 32.695 18.9312 32.695C19.3155 32.7243 19.7016 32.6701 20.063 32.5361C20.4244 32.4022 20.7526 32.1917 21.025 31.919C21.2973 31.6463 21.5075 31.318 21.6411 30.9564C21.7746 30.5949 21.8284 30.2087 21.7987 29.8244V27.5305C21.7987 25.2365 20.6507 24.0896 18.3547 24.0896H6.31143V16.0638H17.2108C19.5047 16.0638 20.6517 14.9168 20.6517 12.6228V11.4728C20.6517 9.17886 19.5047 8.03188 17.2108 8.03188H0.576539V0H20.0782C23.8242 0 26.5767 0.85006 28.3358 2.55019C30.0949 4.25032 30.9745 6.84118 30.9745 10.3228C30.9745 12.6208 30.4488 14.4846 29.3974 15.9143C28.3668 17.3351 26.9105 18.3908 25.2396 18.9282C28.3348 19.7701 30.4386 21.8353 31.551 25.1237C31.9522 26.4619 32.1446 27.854 32.1215 29.251V29.8244C32.1215 33.5725 31.2429 36.326 29.4859 38.0851C27.7288 39.8442 24.9752 40.7238 21.2252 40.7238Z" fill="white"/>
<path d="M35.5625 31.5449H45.8883V40.1625H35.5625V31.5449Z" fill="white"/>
<path d="M168.325 12.1377H67.272C65.238 12.1401 63.2881 12.9492 61.8498 14.3874C60.4116 15.8257 59.6025 17.7757 59.6001 19.8096V33.3598C59.6025 35.3938 60.4116 37.3438 61.8498 38.782C63.2881 40.2203 65.238 41.0293 67.272 41.0317H168.325C170.359 41.0301 172.31 40.2214 173.749 38.7831C175.188 37.3448 175.998 35.3943 176 33.3598V19.8096C175.998 17.7751 175.188 15.8247 173.749 14.3864C172.31 12.948 170.359 12.1393 168.325 12.1377ZM172.873 33.3598C172.872 34.5661 172.393 35.7228 171.54 36.5761C170.688 37.4294 169.531 37.9095 168.325 37.9111H67.272C66.0652 37.9103 64.908 37.4306 64.0547 36.5772C63.2013 35.7238 62.7215 34.5667 62.7207 33.3598V19.8096C62.7223 18.6033 63.2025 17.4469 64.0557 16.5942C64.909 15.7415 66.0657 15.2622 67.272 15.2614H168.325C169.531 15.263 170.687 15.7427 171.539 16.5953C172.392 17.4479 172.872 18.6039 172.873 19.8096V33.3598Z" fill="white"/>
<path d="M80.5601 20.9596L77.9336 19.2666L75.0723 23.705L72.2079 19.2666L69.5845 20.9596L72.2048 25.0259H67.8457V28.1465H72.2048L69.5845 32.2097L72.2079 33.9028L75.0723 29.4674L77.9336 33.9028L80.5601 32.2097L77.9367 28.1465H82.2958V25.0259H77.9367L80.5601 20.9596Z" fill="white"/>
<path d="M99.2958 20.9596L96.6724 19.2666L93.811 23.705L90.9466 19.2666L88.3232 20.9596L90.9436 25.0259H86.5845V28.1465H90.9436L88.3232 32.2097L90.9466 33.9028L93.811 29.4674L96.6724 33.9028L99.2958 32.2097L96.6754 28.1465H101.035V25.0259H96.6754L99.2958 20.9596Z" fill="white"/>
<path d="M118.035 20.9596L115.412 19.2666L112.55 23.705L109.686 19.2666L107.063 20.9596L109.683 25.0259H105.324V28.1465H109.683L107.063 32.2097L109.686 33.9028L112.55 29.4674L115.412 33.9028L118.035 32.2097L115.415 28.1465H119.774V25.0259H115.415L118.035 20.9596Z" fill="white"/>
<path d="M136.774 20.9596L134.15 19.2666L131.286 23.705L128.425 19.2666L125.801 20.9596L128.422 25.0259H124.062V28.1465H128.422L125.801 32.2097L128.425 33.9028L131.286 29.4674L134.15 33.9028L136.774 32.2097L134.153 28.1465H138.513V25.0259H134.153L136.774 20.9596Z" fill="white"/>
<path d="M166.211 32.3076H145.864V35.4313H166.211V32.3076Z" fill="white"/>
</svg>
