<svg width="129" height="56" viewBox="0 0 129 56" fill="none" xmlns="http://www.w3.org/2000/svg">
<path d="M127.993 19.6492L127.403 19.9948L127.939 20.2898C128.254 20.4619 128.517 20.7134 128.702 21.0189C128.887 21.3243 128.987 21.6729 128.992 22.029C128.997 22.3852 128.906 22.7363 128.73 23.0467C128.554 23.3571 128.297 23.6156 127.987 23.7961L127.397 24.1443L127.934 24.4394C128.249 24.6114 128.512 24.8629 128.697 25.1684C128.882 25.4739 128.981 25.8224 128.986 26.1786C128.991 26.5348 128.901 26.8859 128.725 27.1962C128.548 27.5066 128.292 27.7651 127.982 27.9456L127.392 28.2912L127.928 28.5863C128.243 28.7583 128.506 29.0098 128.691 29.3153C128.876 29.6208 128.976 29.9693 128.981 30.3255C128.986 30.6816 128.896 31.0328 128.719 31.3431C128.543 31.6535 128.287 31.912 127.977 32.0925L88.119 55.4054C87.467 55.786 86.7258 55.9908 85.9691 55.9997C85.2123 56.0086 84.4664 55.8211 83.8055 55.4559L63.0477 43.9962C62.7343 43.8234 62.4724 43.5718 62.2884 43.2666C62.1045 42.9615 62.0051 42.6136 62.0002 42.2582C61.9953 41.9028 62.0851 41.5525 62.2605 41.2424C62.436 40.9324 62.6909 40.6738 62.9994 40.4926L63.5923 40.1497L63.0558 39.8493C62.7423 39.6765 62.4804 39.4248 62.2965 39.1197C62.1126 38.8146 62.0131 38.4667 62.0082 38.1113C62.0033 37.7559 62.0931 37.4056 62.2686 37.0956C62.444 36.7856 62.6989 36.5269 63.0075 36.3457L63.6003 36.0001L63.0638 35.6998C62.7504 35.527 62.4885 35.2753 62.3045 34.9702C62.1206 34.665 62.0212 34.3172 62.0163 33.9618C62.0114 33.6064 62.1012 33.256 62.2766 32.946C62.4521 32.636 62.707 32.3774 63.0155 32.1962L63.6084 31.8533L63.0719 31.5529C62.7584 31.3801 62.4965 31.1284 62.3126 30.8233C62.1287 30.5181 62.0292 30.1703 62.0243 29.8149C62.0194 29.4595 62.1092 29.1092 62.2847 28.7991C62.4601 28.4891 62.715 28.2305 63.0236 28.0493L63.6164 27.7037L63.0799 27.4033C62.7665 27.2306 62.5046 26.9789 62.3206 26.6738C62.1367 26.3686 62.0373 26.0208 62.0324 25.6654C62.0275 25.31 62.1173 24.9596 62.2927 24.6496C62.4682 24.3396 62.7231 24.0809 63.0316 23.8998L102.777 0.600121C103.427 0.217914 104.168 0.0111661 104.924 0.000439736C105.68 -0.0102866 106.426 0.175387 107.088 0.538987L127.947 11.9934C128.262 12.1654 128.525 12.417 128.71 12.7224C128.895 13.0279 128.995 13.3765 129 13.7326C129.005 14.0888 128.914 14.4399 128.738 14.7503C128.562 15.0606 128.305 15.3192 127.995 15.4997L127.405 15.8452L127.942 16.143C128.257 16.315 128.52 16.5665 128.705 16.872C128.89 17.1775 128.99 17.526 128.994 17.8822C128.999 18.2383 128.909 18.5895 128.733 18.8998C128.556 19.2102 128.3 19.4687 127.99 19.6492H127.993ZM80.8654 15.8559L102.691 27.9376L109.003 24.2613L87.2016 12.1343L80.8654 15.8559ZM115.307 14.1758C115.307 13.5577 115.372 12.9413 115.5 12.3363L109.006 8.78491C107.625 9.25415 106.173 9.48872 104.713 9.47871C103.414 9.48185 102.12 9.29646 100.875 8.92845L93.5003 13.2322L106.87 20.6753L115.454 15.6831C115.361 15.1815 115.311 14.6727 115.307 14.1626V14.1758ZM75.6826 25.6675C75.6819 26.1728 75.6371 26.6771 75.5485 27.1747L82.1208 30.8032C83.4599 30.3677 84.8614 30.1505 86.2708 30.1599C87.4624 30.1565 88.6491 30.313 89.7983 30.6251L96.376 26.7919L82.9873 19.3727L75.4627 23.7615C75.6086 24.3865 75.6824 25.026 75.6826 25.6675ZM64.6224 25.5851C64.623 25.6779 64.648 25.7689 64.6951 25.8491C64.7421 25.9293 64.8096 25.9959 64.8907 26.0423L84.8356 37.0528C85.1775 37.2421 85.5635 37.3393 85.9551 37.3346C86.3467 37.33 86.7303 37.2236 87.0675 37.0262L100.598 29.1472L98.4845 27.9749L90.5092 32.6029C90.3659 32.6857 90.2068 32.7382 90.0419 32.757C89.8771 32.7757 89.7101 32.7604 89.5515 32.7119C87.228 32.0109 84.7386 32.0687 82.4508 32.8767C82.2899 32.9382 82.1174 32.964 81.9454 32.952C81.7734 32.9401 81.6061 32.8908 81.4555 32.8076L73.5366 28.4427C73.4163 28.3754 73.3228 28.2694 73.2715 28.1423C73.2203 28.0151 73.2145 27.8745 73.2549 27.7436C73.7345 26.2863 73.6909 24.7095 73.1315 23.2804C73.084 23.1486 73.0848 23.0044 73.1339 22.8731C73.1829 22.7419 73.2771 22.632 73.3998 22.5626L80.8788 18.1978L78.7622 17.0255L64.888 25.1225C64.8046 25.1684 64.7351 25.2354 64.6865 25.3167C64.6379 25.398 64.6121 25.4906 64.6117 25.5851H64.6224ZM101.784 43.2731L88.1352 51.2479C87.4836 51.6296 86.7424 51.8354 85.9855 51.8447C85.2286 51.8541 84.4825 51.6666 83.8216 51.3011L65.6445 41.2661L64.8853 41.7074C64.804 41.7541 64.7365 41.8212 64.6896 41.9019C64.6427 41.9827 64.618 42.0741 64.618 42.1673C64.618 42.2604 64.6427 42.3519 64.6896 42.4327C64.7365 42.5134 64.804 42.5804 64.8853 42.6272L84.8302 53.635C85.1722 53.8237 85.558 53.9207 85.9494 53.9165C86.3408 53.9123 86.7243 53.8071 87.0621 53.6111L101.773 45.0435L101.784 43.2731ZM101.784 39.1263L88.1352 47.101C87.4833 47.482 86.7422 47.6873 85.9855 47.6966C85.2288 47.706 84.4828 47.519 83.8216 47.1542L65.6337 37.1219L64.8746 37.5659C64.7939 37.6128 64.727 37.6798 64.6805 37.7602C64.634 37.8406 64.6096 37.9317 64.6096 38.0244C64.6096 38.1171 64.634 38.2082 64.6805 38.2886C64.727 38.369 64.7939 38.436 64.8746 38.4829L84.8195 49.4935C85.1529 49.6788 85.529 49.7759 85.9113 49.7752C86.3123 49.775 86.7059 49.6686 87.0514 49.4669L101.763 40.8993L101.784 39.1263ZM101.784 34.9767L88.1352 42.9515C87.4836 43.3332 86.7424 43.539 85.9855 43.5483C85.2286 43.5577 84.4825 43.3702 83.8216 43.0046L65.6445 32.9697L64.8853 33.411C64.804 33.4577 64.7365 33.5248 64.6896 33.6055C64.6427 33.6862 64.618 33.7777 64.618 33.8709C64.618 33.964 64.6427 34.0555 64.6896 34.1362C64.7365 34.2169 64.804 34.284 64.8853 34.3307L84.8302 45.3625C85.1721 45.5518 85.5581 45.649 85.9497 45.6443C86.3414 45.6397 86.7249 45.5333 87.0621 45.3359L101.773 36.7684L101.784 34.9767ZM101.784 30.8272L88.1352 38.8019C87.4831 39.1824 86.7421 39.3874 85.9855 39.3968C85.2289 39.4061 84.4829 39.2194 83.8216 38.8551L65.6445 28.8175L64.8853 29.2615C64.804 29.3082 64.7365 29.3753 64.6896 29.456C64.6427 29.5367 64.618 29.6282 64.618 29.7213C64.618 29.8145 64.6427 29.906 64.6896 29.9867C64.7365 30.0674 64.804 30.1345 64.8853 30.1812L84.8302 41.1917C85.1727 41.3796 85.5587 41.4757 85.9501 41.4706C86.3415 41.4654 86.7248 41.3592 87.0621 41.1625L101.773 32.6029L101.784 30.8272ZM110.156 40.1178V25.9333L103.879 29.6044V43.7915L110.156 40.1178ZM126.386 30.4098C126.385 30.3175 126.36 30.227 126.313 30.1473C126.266 30.0676 126.198 30.0014 126.118 29.9553L125.313 29.514L112.251 37.1538V38.9535L126.115 30.875C126.197 30.828 126.265 30.7601 126.313 30.6784C126.36 30.5966 126.384 30.504 126.383 30.4098H126.386ZM126.386 26.2629C126.385 26.1702 126.36 26.0791 126.313 25.9989C126.266 25.9187 126.199 25.8521 126.118 25.8057L125.313 25.3671L112.251 33.0043V34.8066L126.126 26.7255C126.206 26.6773 126.271 26.6093 126.317 26.5281C126.362 26.447 126.385 26.3556 126.383 26.2629H126.386ZM126.386 22.1134C126.385 22.0211 126.36 21.9306 126.313 21.8509C126.266 21.7712 126.198 21.705 126.118 21.6588L125.313 21.2176L112.251 28.8574V30.657L126.115 22.5786C126.197 22.5315 126.265 22.4637 126.313 22.3819C126.36 22.3002 126.384 22.2075 126.383 22.1134H126.386ZM126.386 17.9665C126.385 17.8742 126.36 17.7837 126.313 17.704C126.266 17.6243 126.198 17.5581 126.118 17.512L125.313 17.0707L112.241 24.7079V26.5102L126.115 18.4317C126.197 18.3847 126.265 18.3168 126.313 18.2351C126.36 18.1533 126.384 18.0607 126.383 17.9665H126.386ZM126.386 13.817C126.385 13.7247 126.36 13.6342 126.313 13.5545C126.266 13.4748 126.198 13.4086 126.118 13.3624L106.076 2.35723C105.742 2.17519 105.368 2.07921 104.987 2.07811C104.585 2.07798 104.19 2.18544 103.844 2.38914L89.2913 10.8796L91.3998 12.0572L100.18 6.93209C100.328 6.84623 100.493 6.79321 100.664 6.77669C100.835 6.76017 101.008 6.78054 101.17 6.8364C102.315 7.22045 103.518 7.41271 104.727 7.40527C106.069 7.41793 107.403 7.18078 108.657 6.70615C108.819 6.64193 108.994 6.61433 109.168 6.62536C109.343 6.6364 109.513 6.68579 109.665 6.76994L117.531 11.071C117.654 11.1416 117.748 11.2526 117.796 11.3846C117.845 11.5166 117.846 11.6614 117.799 11.794C117.276 13.2233 117.243 14.7836 117.705 16.2333C117.745 16.3613 117.74 16.4987 117.691 16.6235C117.642 16.7483 117.553 16.8533 117.437 16.9218L108.96 21.8609L111.093 23.0332L126.115 14.2848C126.198 14.2376 126.266 14.1693 126.313 14.087C126.36 14.0048 126.385 13.9116 126.383 13.817H126.386Z" fill="black"/>
<path d="M21.3579 47.3715H0V39.2895L13.8529 15.04H25.3974L11.5446 39.2895H21.3671V30.6333H31.7544V39.2895H35.7939V47.3715H31.7452V55.4506H21.3579V47.3715Z" fill="black"/>
<path d="M38.0928 46.7881H48.4832V55.4442H38.0928V46.7881Z" fill="black"/>
</svg>
