<svg width="115" height="29" viewBox="0 0 115 29" fill="none" xmlns="http://www.w3.org/2000/svg">
<path d="M13.8296 27.9705C9.66763 27.9705 5.05775 27.7079 0 27.1827V21.8651C5.50827 22.259 9.61993 22.456 12.335 22.456C12.5854 22.4761 12.8369 22.4389 13.0724 22.3469C13.3079 22.2549 13.5217 22.1103 13.6992 21.923C13.8767 21.7358 14.0136 21.5102 14.1006 21.2619C14.1876 21.0136 14.2227 20.7484 14.2033 20.4844V18.9089C14.2033 17.3333 13.4553 16.5455 11.9593 16.5455H4.11232V11.0331H11.214C12.7086 11.0331 13.456 10.2453 13.456 8.66978V7.87991C13.456 6.30435 12.7086 5.51656 11.214 5.51656H0.375654V0H13.0823C15.5231 0 17.3165 0.58385 18.4627 1.75156C19.6089 2.91926 20.182 4.69875 20.182 7.09003C20.182 8.66839 19.8395 9.94854 19.1544 10.9305C18.4829 11.9063 17.534 12.6314 16.4453 13.0005C18.4621 13.5788 19.8328 14.9972 20.5576 17.2558C20.819 18.1749 20.9444 19.1311 20.9293 20.0905V20.4844C20.9293 23.0587 20.3569 24.9499 19.212 26.1581C18.0672 27.3663 16.2731 27.9705 13.8296 27.9705Z" fill="black"/>
<path d="M23.1709 21.666H29.8989V27.585H23.1709V21.666Z" fill="black"/>
<path d="M109.676 8.33643H43.8328C42.5075 8.33809 41.2369 8.89378 40.2998 9.88161C39.3627 10.8695 38.8356 12.2088 38.834 13.6058V22.9125C38.8356 24.3095 39.3627 25.6489 40.2998 26.6367C41.2369 27.6245 42.5075 28.1802 43.8328 28.1819H109.676C111.001 28.1808 112.272 27.6253 113.21 26.6374C114.147 25.6495 114.675 24.3099 114.676 22.9125V13.6058C114.675 12.2084 114.147 10.8688 113.21 9.88089C112.272 8.89299 111.001 8.33753 109.676 8.33643ZM112.639 22.9125C112.639 23.7411 112.326 24.5355 111.771 25.1216C111.215 25.7077 110.462 26.0374 109.676 26.0385H43.8328C43.0464 26.038 42.2925 25.7085 41.7364 25.1223C41.1804 24.5362 40.8678 23.7414 40.8673 22.9125V13.6058C40.8683 12.7773 41.1812 11.983 41.7371 11.3973C42.2931 10.8117 43.0468 10.4824 43.8328 10.4819H109.676C110.461 10.483 111.214 10.8125 111.77 11.3981C112.326 11.9837 112.638 12.7776 112.639 13.6058V22.9125Z" fill="black"/>
<path d="M52.4903 14.3957L50.779 13.2329L48.9147 16.2814L47.0483 13.2329L45.339 14.3957L47.0463 17.1886H44.2061V19.332H47.0463L45.339 22.1228L47.0483 23.2856L48.9147 20.2392L50.779 23.2856L52.4903 22.1228L50.781 19.332H53.6213V17.1886H50.781L52.4903 14.3957Z" fill="black"/>
<path d="M64.6983 14.3957L62.989 13.2329L61.1246 16.2814L59.2583 13.2329L57.5489 14.3957L59.2563 17.1886H56.416V19.332H59.2563L57.5489 22.1228L59.2583 23.2856L61.1246 20.2392L62.989 23.2856L64.6983 22.1228L62.991 19.332H65.8312V17.1886H62.991L64.6983 14.3957Z" fill="black"/>
<path d="M76.9083 14.3957L75.1989 13.2329L73.3346 16.2814L71.4682 13.2329L69.7589 14.3957L71.4662 17.1886H68.626V19.332H71.4662L69.7589 22.1228L71.4682 23.2856L73.3346 20.2392L75.1989 23.2856L76.9083 22.1228L75.2009 19.332H78.0412V17.1886H75.2009L76.9083 14.3957Z" fill="black"/>
<path d="M89.1172 14.3957L87.4079 13.2329L85.5416 16.2814L83.6772 13.2329L81.9679 14.3957L83.6752 17.1886H80.835V19.332H83.6752L81.9679 22.1228L83.6772 23.2856L85.5416 20.2392L87.4079 23.2856L89.1172 22.1228L87.4099 19.332H90.2502V17.1886H87.4099L89.1172 14.3957Z" fill="black"/>
<path d="M108.298 22.1897H95.041V24.3354H108.298V22.1897Z" fill="black"/>
</svg>
