<svg width="85" height="39" viewBox="0 0 85 39" fill="none" xmlns="http://www.w3.org/2000/svg">
<path d="M83.3963 13.4957L83.0117 13.7331L83.3613 13.9357C83.5664 14.0539 83.7379 14.2266 83.8583 14.4364C83.9788 14.6463 84.0439 14.8856 84.0471 15.1303C84.0503 15.3749 83.9915 15.6161 83.8765 15.8292C83.7616 16.0424 83.5947 16.22 83.3928 16.3439L83.0082 16.5831L83.3578 16.7858C83.5629 16.9039 83.7344 17.0767 83.8548 17.2865C83.9753 17.4963 84.0404 17.7357 84.0436 17.9803C84.0468 18.225 83.988 18.4661 83.873 18.6793C83.7581 18.8924 83.5912 19.07 83.3893 19.194L83.0047 19.4313L83.3543 19.634C83.5594 19.7521 83.7309 19.9249 83.8513 20.1347C83.9718 20.3445 84.0369 20.5839 84.0401 20.8285C84.0433 21.0732 83.9845 21.3143 83.8695 21.5275C83.7546 21.7407 83.5877 21.9182 83.3858 22.0422L57.4158 38.0543C56.9909 38.3156 56.508 38.4564 56.0149 38.4624C55.5219 38.4685 55.0359 38.3398 54.6052 38.089L41.0801 30.218C40.8759 30.0994 40.7052 29.9265 40.5854 29.7169C40.4656 29.5074 40.4008 29.2685 40.3976 29.0244C40.3944 28.7803 40.4529 28.5396 40.5672 28.3267C40.6815 28.1138 40.8476 27.9361 41.0487 27.8117L41.4349 27.5761L41.0854 27.3698C40.8811 27.2511 40.7105 27.0783 40.5906 26.8687C40.4708 26.6591 40.406 26.4202 40.4028 26.1761C40.3996 25.932 40.4582 25.6914 40.5725 25.4785C40.6868 25.2655 40.8529 25.0879 41.0539 24.9634L41.4402 24.7261L41.0906 24.5198C40.8864 24.4011 40.7157 24.2282 40.5959 24.0187C40.4761 23.8091 40.4113 23.5702 40.4081 23.3261C40.4049 23.082 40.4634 22.8413 40.5777 22.6284C40.692 22.4155 40.8581 22.2378 41.0592 22.1134L41.4454 21.8779L41.0959 21.6716C40.8916 21.5529 40.721 21.38 40.6011 21.1705C40.4813 20.9609 40.4165 20.722 40.4133 20.4779C40.4101 20.2338 40.4686 19.9931 40.583 19.7802C40.6973 19.5673 40.8633 19.3896 41.0644 19.2652L41.4507 19.0278L41.1011 18.8215C40.8969 18.7028 40.7262 18.53 40.6064 18.3204C40.4865 18.1108 40.4217 17.8719 40.4186 17.6278C40.4154 17.3837 40.4739 17.1431 40.5882 16.9302C40.7025 16.7172 40.8686 16.5396 41.0696 16.4151L66.9662 0.412183C67.3901 0.14967 67.8725 0.00766921 68.3653 0.000302025C68.858 -0.00706516 69.3441 0.120462 69.775 0.370194L83.3665 8.23747C83.5716 8.35562 83.7431 8.52839 83.8636 8.7382C83.984 8.94801 84.0492 9.1874 84.0524 9.43202C84.0556 9.67665 83.9967 9.9178 83.8818 10.131C83.7668 10.3441 83.5999 10.5217 83.398 10.6457L83.0135 10.883L83.363 11.0875C83.5681 11.2057 83.7396 11.3784 83.8601 11.5882C83.9805 11.798 84.0457 12.0374 84.0489 12.2821C84.0521 12.5267 83.9932 12.7678 83.8783 12.981C83.7633 13.1942 83.5964 13.3718 83.3945 13.4957H83.3963ZM52.6895 10.8903L66.9103 19.1885L71.023 16.6634L56.818 8.33424L52.6895 10.8903ZM75.1305 9.73644C75.1308 9.31189 75.173 8.88851 75.2564 8.473L71.0248 6.03376C70.1249 6.35605 69.1794 6.51716 68.2282 6.51029C67.3812 6.51245 66.5386 6.38512 65.727 6.13235L60.922 9.08829L69.6335 14.2005L75.2267 10.7717C75.1655 10.4271 75.1333 10.0777 75.1305 9.72731V9.73644ZM49.3126 17.6293C49.3122 17.9763 49.2829 18.3227 49.2252 18.6645L53.5075 21.1567C54.38 20.8575 55.2932 20.7083 56.2115 20.7148C56.988 20.7125 57.7611 20.82 58.51 21.0344L62.7958 18.4016L54.0721 13.3058L49.1693 16.3202C49.2644 16.7495 49.3125 17.1887 49.3126 17.6293ZM42.1061 17.5727C42.1065 17.6364 42.1228 17.6989 42.1535 17.754C42.1842 17.8091 42.2281 17.8549 42.2809 17.8867L55.2764 25.4491C55.4992 25.5791 55.7507 25.6459 56.0058 25.6427C56.261 25.6395 56.5109 25.5664 56.7306 25.4308L65.5469 20.0192L64.1696 19.2141L58.9732 22.3927C58.8798 22.4496 58.7761 22.4857 58.6687 22.4986C58.5613 22.5114 58.4525 22.5009 58.3492 22.4676C56.8352 21.9862 55.2132 22.0258 53.7225 22.5808C53.6177 22.6231 53.5053 22.6407 53.3932 22.6325C53.2812 22.6243 53.1722 22.5905 53.0741 22.5333L47.9143 19.5354C47.8359 19.4892 47.775 19.4164 47.7416 19.3291C47.7083 19.2417 47.7044 19.1451 47.7308 19.0552C48.0433 18.0543 48.0148 16.9713 47.6504 15.9897C47.6194 15.8992 47.62 15.8002 47.6519 15.71C47.6839 15.6199 47.7452 15.5444 47.8252 15.4968L52.6983 12.4988L51.3192 11.6937L42.2792 17.255C42.2248 17.2865 42.1795 17.3325 42.1479 17.3883C42.1162 17.4442 42.0994 17.5078 42.0991 17.5727H42.1061ZM66.3195 29.7214L57.4263 35.1987C57.0017 35.4609 56.5188 35.6023 56.0257 35.6087C55.5325 35.6151 55.0464 35.4863 54.6157 35.2353L42.7721 28.3429L42.2774 28.646C42.2244 28.6781 42.1805 28.7242 42.1499 28.7796C42.1193 28.8351 42.1033 28.8979 42.1033 28.9619C42.1033 29.0259 42.1193 29.0887 42.1499 29.1441C42.1805 29.1996 42.2244 29.2456 42.2774 29.2777L55.2729 36.8383C55.4957 36.9679 55.7471 37.0345 56.0021 37.0317C56.2571 37.0288 56.507 36.9565 56.7271 36.8219L66.3125 30.9374L66.3195 29.7214ZM66.3195 26.8732L57.4263 32.3505C57.0016 32.6122 56.5187 32.7532 56.0256 32.7596C55.5326 32.766 55.0465 32.6376 54.6157 32.387L42.7651 25.4966L42.2704 25.8015C42.2179 25.8337 42.1743 25.8797 42.144 25.935C42.1137 25.9902 42.0978 26.0527 42.0978 26.1164C42.0978 26.1801 42.1137 26.2426 42.144 26.2979C42.1743 26.3531 42.2179 26.3991 42.2704 26.4314L55.2659 33.9937C55.4832 34.1211 55.7282 34.1877 55.9773 34.1873C56.2386 34.1871 56.495 34.114 56.7201 33.9755L66.3055 28.091L66.3195 26.8732ZM66.3195 24.0232L57.4263 29.5005C57.0017 29.7627 56.5188 29.904 56.0257 29.9104C55.5325 29.9168 55.0464 29.7881 54.6157 29.537L42.7721 22.6447L42.2774 22.9478C42.2244 22.9799 42.1805 23.0259 42.1499 23.0814C42.1193 23.1368 42.1033 23.1997 42.1033 23.2636C42.1033 23.3276 42.1193 23.3904 42.1499 23.4459C42.1805 23.5013 42.2244 23.5474 42.2774 23.5795L55.2729 31.1565C55.4957 31.2865 55.7472 31.3532 56.0023 31.35C56.2575 31.3468 56.5074 31.2738 56.7271 31.1382L66.3125 25.2537L66.3195 24.0232ZM66.3195 21.1731L57.4263 26.6504C57.0014 26.9117 56.5186 27.0526 56.0256 27.059C55.5327 27.0654 55.0466 26.9372 54.6157 26.687L42.7721 19.7928L42.2774 20.0977C42.2244 20.1298 42.1805 20.1759 42.1499 20.2313C42.1193 20.2868 42.1033 20.3496 42.1033 20.4136C42.1033 20.4776 42.1193 20.5404 42.1499 20.5958C42.1805 20.6513 42.2244 20.6974 42.2774 20.7295L55.2729 28.2918C55.496 28.4209 55.7475 28.4869 56.0026 28.4834C56.2576 28.4798 56.5073 28.4069 56.7271 28.2717L66.3125 22.3927L66.3195 21.1731ZM71.7746 27.5542V17.8119L67.6846 20.3333V30.0774L71.7746 27.5542ZM82.3493 20.8865C82.3486 20.8231 82.3321 20.7609 82.3015 20.7062C82.2708 20.6514 82.2271 20.606 82.1745 20.5743L81.6501 20.2712L73.1397 25.5185V26.7545L82.1727 21.206C82.2263 21.1737 82.2708 21.127 82.3015 21.0709C82.3322 21.0148 82.3481 20.9511 82.3475 20.8865H82.3493ZM82.3493 18.0383C82.3489 17.9745 82.3326 17.912 82.3019 17.8569C82.2713 17.8018 82.2273 17.7561 82.1745 17.7242L81.6501 17.423L73.1397 22.6684V23.9063L82.1797 18.3559C82.2318 18.3229 82.2746 18.2761 82.3041 18.2204C82.3335 18.1647 82.3485 18.1019 82.3475 18.0383H82.3493ZM82.3493 15.1882C82.3486 15.1248 82.3321 15.0627 82.3015 15.0079C82.2708 14.9532 82.2271 14.9077 82.1745 14.876L81.6501 14.5729L73.1397 19.8202V21.0563L82.1727 15.5077C82.2263 15.4754 82.2708 15.4288 82.3015 15.3726C82.3322 15.3165 82.3481 15.2529 82.3475 15.1882H82.3493ZM82.3493 12.34C82.3486 12.2766 82.3321 12.2144 82.3015 12.1597C82.2708 12.105 82.2271 12.0595 82.1745 12.0278L81.6501 11.7247L73.1327 16.9702V18.2081L82.1727 12.6595C82.2263 12.6272 82.2708 12.5806 82.3015 12.5244C82.3322 12.4683 82.3481 12.4047 82.3475 12.34H82.3493ZM82.3493 9.48996C82.3486 9.42655 82.3321 9.3644 82.3015 9.30966C82.2708 9.25491 82.2271 9.20945 82.1745 9.17775L69.1161 1.61902C68.8987 1.49399 68.6546 1.42807 68.4064 1.42732C68.1444 1.42722 67.8871 1.50103 67.6619 1.64094L58.1796 7.47248L59.5534 8.2813L65.2743 4.76119C65.3708 4.70222 65.4785 4.6658 65.5898 4.65446C65.7012 4.64311 65.8136 4.6571 65.9192 4.69546C66.6657 4.95925 67.4489 5.0913 68.2369 5.08618C69.1117 5.09488 69.9803 4.932 70.7976 4.606C70.9033 4.56189 71.0172 4.54294 71.1309 4.55052C71.2446 4.5581 71.3552 4.59202 71.4547 4.64982L76.5795 7.60393C76.6595 7.65245 76.7207 7.72864 76.7527 7.81931C76.7846 7.90999 76.7852 8.00945 76.7543 8.10054C76.4134 9.08219 76.3919 10.1539 76.6931 11.1496C76.7188 11.2375 76.7156 11.3318 76.6839 11.4175C76.6522 11.5033 76.5939 11.5754 76.5184 11.6225L70.9951 15.0148L72.3846 15.8199L82.1727 9.8113C82.2266 9.77882 82.2712 9.73192 82.3019 9.67544C82.3327 9.61895 82.3484 9.55492 82.3475 9.48996H82.3493Z" fill="white"/>
<path d="M13.9161 32.5362H0V26.9852L9.02607 10.3298H16.5481L7.52206 26.9852H13.9221V21.0398H20.6902V26.9852H23.3222V32.5362H20.6842V38.0852H13.9161V32.5362Z" fill="white"/>
<path d="M24.8203 32.1355H31.5904V38.0808H24.8203V32.1355Z" fill="white"/>
</svg>
