<svg width="107" height="107" viewBox="0 0 107 107" fill="none" xmlns="http://www.w3.org/2000/svg">
<path d="M53.4651 0.473633C24.244 0.473633 0.52832 24.1893 0.52832 53.4104C0.52832 82.6315 24.244 106.347 53.4651 106.347C82.6862 106.347 106.402 82.6315 106.402 53.4104C106.402 24.1893 82.6862 0.473633 53.4651 0.473633ZM75.4868 55.1044L41.6072 76.2791C41.1837 76.7025 41.1837 76.7026 40.7603 76.7026C40.3368 76.7026 40.3368 76.7026 39.9133 76.7026C39.4898 76.2791 39.0663 75.8556 39.0663 74.5851V32.2357C39.0663 31.3887 39.4898 30.5417 39.9133 30.5417C40.3368 30.1182 41.6072 30.1182 42.0307 30.5417L75.9102 51.7164C76.3337 52.1399 76.7572 52.5634 76.7572 53.4104C76.7572 54.2574 76.3337 55.1044 75.4868 55.1044Z" fill="black" fill-opacity="0.6"/>
</svg>
