<svg width="28" height="35" viewBox="0 0 28 35" fill="none" xmlns="http://www.w3.org/2000/svg">
<path d="M3.8981 35V29.864H0.0581055V25.208H3.8981V21.464H0.0581055V15.512H3.8981V0.727997H14.8421C19.2581 0.727997 22.4741 1.624 24.4901 3.416C26.5381 5.208 27.5621 7.672 27.5621 10.808C27.5621 12.664 27.1461 14.408 26.3141 16.04C25.4821 17.672 24.0901 18.984 22.1381 19.976C20.2181 20.968 17.5941 21.464 14.2661 21.464H11.1461V25.208H18.5381V29.864H11.1461V35H3.8981ZM13.5461 15.512C15.5941 15.512 17.2101 15.16 18.3941 14.456C19.6101 13.752 20.2181 12.616 20.2181 11.048C20.2181 8.136 18.2981 6.68 14.4581 6.68H11.1461V15.512H13.5461Z" fill="#FF483D"/>
</svg>
